<svg width="16" height="18" viewBox="0 0 16 18" fill="none" xmlns="http://www.w3.org/2000/svg">
<path d="M4 1.8C4 1.32261 4.16857 0.864773 4.46863 0.527208C4.76869 0.189642 5.17565 0 5.6 0H10.4C10.8243 0 11.2313 0.189642 11.5314 0.527208C11.8314 0.864773 12 1.32261 12 1.8V3.6H15.2C15.4122 3.6 15.6157 3.69482 15.7657 3.8636C15.9157 4.03239 16 4.2613 16 4.5C16 4.73869 15.9157 4.96761 15.7657 5.1364C15.6157 5.30518 15.4122 5.4 15.2 5.4H14.3448L13.6512 16.3278C13.6225 16.7819 13.4418 17.2069 13.1457 17.5172C12.8495 17.8275 12.4599 18 12.0552 18H3.944C3.53931 18 3.14965 17.8275 2.85351 17.5172C2.55736 17.2069 2.37673 16.7819 2.348 16.3278L1.656 5.4H0.8C0.587827 5.4 0.384344 5.30518 0.234315 5.1364C0.0842854 4.96761 0 4.73869 0 4.5C0 4.2613 0.0842854 4.03239 0.234315 3.8636C0.384344 3.69482 0.587827 3.6 0.8 3.6H4V1.8ZM5.6 3.6H10.4V1.8H5.6V3.6ZM3.2592 5.4L3.9448 16.2H12.056L12.7416 5.4H3.2592ZM6.4 7.2C6.61217 7.2 6.81566 7.29482 6.96569 7.4636C7.11571 7.63239 7.2 7.8613 7.2 8.1V13.5C7.2 13.7387 7.11571 13.9676 6.96569 14.1364C6.81566 14.3052 6.61217 14.4 6.4 14.4C6.18783 14.4 5.98434 14.3052 5.83431 14.1364C5.68429 13.9676 5.6 13.7387 5.6 13.5V8.1C5.6 7.8613 5.68429 7.63239 5.83431 7.4636C5.98434 7.29482 6.18783 7.2 6.4 7.2ZM9.6 7.2C9.81217 7.2 10.0157 7.29482 10.1657 7.4636C10.3157 7.63239 10.4 7.8613 10.4 8.1V13.5C10.4 13.7387 10.3157 13.9676 10.1657 14.1364C10.0157 14.3052 9.81217 14.4 9.6 14.4C9.38783 14.4 9.18434 14.3052 9.03432 14.1364C8.88429 13.9676 8.8 13.7387 8.8 13.5V8.1C8.8 7.8613 8.88429 7.63239 9.03432 7.4636C9.18434 7.29482 9.38783 7.2 9.6 7.2Z" fill="#D9D9D9"/>
</svg>
