<svg width="20" height="20" viewBox="0 0 20 20" fill="none" xmlns="http://www.w3.org/2000/svg">
<path d="M5.50979 1.29736H2.86546C1.69712 1.29736 0.75 2.24449 0.75 3.41282V6.05715C0.75 7.22549 1.69712 8.17261 2.86546 8.17261H5.50979C6.67812 8.17261 7.62525 7.22549 7.62525 6.05715V3.41282C7.62525 2.24449 6.67812 1.29736 5.50979 1.29736Z" stroke="#989CDF" stroke-width="1.5" stroke-linecap="round" stroke-linejoin="round"/>
<path d="M13.2693 1.36938C13.666 0.972791 14.2039 0.75 14.7649 0.75C15.3258 0.75 15.8638 0.972791 16.2605 1.36938L18.1306 3.23945C18.5272 3.63615 18.75 4.17413 18.75 4.73508C18.75 5.29602 18.5272 5.834 18.1306 6.23071L16.2605 8.10077C15.8638 8.49736 15.3258 8.72015 14.7649 8.72015C14.2039 8.72015 13.666 8.49736 13.2693 8.10077L11.3992 6.23071C11.0026 5.834 10.7798 5.29602 10.7798 4.73508C10.7798 4.17413 11.0026 3.63615 11.3992 3.23945L13.2693 1.36938Z" stroke="#989CDF" stroke-width="1.5" stroke-linecap="round" stroke-linejoin="round"/>
<path d="M6.03865 11.8748H2.3366C1.46034 11.8748 0.75 12.5851 0.75 13.4614V17.1634C0.75 18.0397 1.46034 18.75 2.3366 18.75H6.03865C6.9149 18.75 7.62525 18.0397 7.62525 17.1634V13.4614C7.62525 12.5851 6.9149 11.8748 6.03865 11.8748Z" stroke="#989CDF" stroke-width="1.5" stroke-linecap="round" stroke-linejoin="round"/>
<path d="M16.0871 11.8748H13.4428C12.2745 11.8748 11.3273 12.8219 11.3273 13.9902V16.6345C11.3273 17.8029 12.2745 18.75 13.4428 18.75H16.0871C17.2555 18.75 18.2026 17.8029 18.2026 16.6345V13.9902C18.2026 12.8219 17.2555 11.8748 16.0871 11.8748Z" stroke="#989CDF" stroke-width="1.5" stroke-linecap="round" stroke-linejoin="round"/>
</svg>
