<svg width="42" height="23" viewBox="0 0 42 23" fill="none" xmlns="http://www.w3.org/2000/svg">
<path d="M4.66667 18.4V4.6H28V18.4H4.66667ZM39.6667 5.75C40.3108 5.75 40.8607 5.97461 41.3164 6.42383C41.7721 6.87305 42 7.4151 42 8.05V14.95C42 15.5849 41.7721 16.127 41.3164 16.5762C40.8607 17.0254 40.3108 17.25 39.6667 17.25V20.125C39.6667 20.9156 39.3811 21.5924 38.8099 22.1555C38.2387 22.7185 37.5521 23 36.75 23H2.91667C2.11458 23 1.42795 22.7185 0.856771 22.1555C0.28559 21.5924 0 20.9156 0 20.125V2.875C0 2.08437 0.28559 1.40755 0.856771 0.844531C1.42795 0.28151 2.11458 0 2.91667 0H36.75C37.5521 0 38.2387 0.28151 38.8099 0.844531C39.3811 1.40755 39.6667 2.08437 39.6667 2.875V5.75ZM39.6667 14.95V8.05H37.3333V2.875C37.3333 2.70729 37.2786 2.56953 37.1693 2.46172C37.0599 2.35391 36.9201 2.3 36.75 2.3H2.91667C2.74653 2.3 2.60677 2.35391 2.4974 2.46172C2.38802 2.56953 2.33333 2.70729 2.33333 2.875V20.125C2.33333 20.2927 2.38802 20.4305 2.4974 20.5383C2.60677 20.6461 2.74653 20.7 2.91667 20.7H36.75C36.9201 20.7 37.0599 20.6461 37.1693 20.5383C37.2786 20.4305 37.3333 20.2927 37.3333 20.125V14.95H39.6667Z" fill="#2FE55D"/>
</svg>
