<svg width="62" height="62" viewBox="0 0 62 62" fill="none" xmlns="http://www.w3.org/2000/svg">
<circle cx="30.5997" cy="30.5996" r="21.5" stroke="#3A0CBB" stroke-width="3"/>
<g filter="url(#filter0_f_558_922)">
<path d="M29.2401 52.0566C25.1685 51.7986 21.2543 50.3875 17.9547 47.988C14.6551 45.5884 12.1063 42.2997 10.6061 38.5057C9.10585 34.7117 8.71605 30.5692 9.48223 26.562C10.2484 22.5548 12.1389 18.8483 14.933 15.8754C17.7271 12.9025 21.3093 10.7859 25.2614 9.77293C29.2134 8.75993 33.3721 8.89231 37.2518 10.1546C41.1314 11.4169 44.5718 13.757 47.1711 16.9015C49.7705 20.0461 51.4214 23.8654 51.9312 27.9132" stroke="url(#paint0_linear_558_922)" stroke-width="3" stroke-linecap="round"/>
</g>
<defs>
<filter id="filter0_f_558_922" x="6.59973" y="6.59967" width="47.8317" height="47.957" filterUnits="userSpaceOnUse" color-interpolation-filters="sRGB">
<feFlood flood-opacity="0" result="BackgroundImageFix"/>
<feBlend mode="normal" in="SourceGraphic" in2="BackgroundImageFix" result="shape"/>
<feGaussianBlur stdDeviation="0.5" result="effect1_foregroundBlur_558_922"/>
</filter>
<linearGradient id="paint0_linear_558_922" x1="9.43604" y1="39.6424" x2="51.7634" y2="21.5569" gradientUnits="userSpaceOnUse">
<stop stop-color="#3FA1C6"/>
<stop offset="1" stop-color="#55D0FF"/>
</linearGradient>
</defs>
</svg>
