<svg width="18" height="20" viewBox="0 0 18 20" fill="none" xmlns="http://www.w3.org/2000/svg">
<path d="M16.4772 12.4247H1.52279M9 19V17.4934M14.2253 19V17.4934M3.77466 19V17.4934M17 19V18.999C16.6536 17.7312 16.478 16.4272 16.4772 15.1179V9.90419C16.4773 9.66957 16.4285 9.43722 16.3335 9.22043C16.2385 9.00363 16.0992 8.80666 15.9236 8.64075C15.7479 8.47484 15.5394 8.34327 15.3098 8.25354C15.0803 8.16381 14.8343 8.11769 14.5859 8.11782H10.8558V2.85211C10.8558 1.90297 10.1033 1.05211 9.09941 1.00249C8.8477 0.989807 8.5959 1.02567 8.35935 1.1079C8.1228 1.19014 7.90646 1.31701 7.72352 1.48078C7.54058 1.64456 7.39487 1.84181 7.29527 2.06052C7.19568 2.27922 7.14428 2.51479 7.14422 2.75286V8.11782H3.41411C3.1657 8.11769 2.9197 8.16381 2.69018 8.25354C2.46065 8.34327 2.2521 8.47484 2.07644 8.64075C1.90079 8.80666 1.76148 9.00363 1.66648 9.22043C1.57148 9.43722 1.52266 9.66957 1.52279 9.90419V15.1179C1.52211 16.4275 1.34646 17.7319 1 19H16.9995H17Z" stroke="#55D0FF" stroke-width="2" stroke-linecap="round" stroke-linejoin="round"/>
</svg>
