<svg width="17" height="17" viewBox="0 0 17 17" fill="none" xmlns="http://www.w3.org/2000/svg">
<path d="M8.5 16.5C12.9183 16.5 16.5 12.9183 16.5 8.5C16.5 4.08172 12.9183 0.5 8.5 0.5C4.08172 0.5 0.5 4.08172 0.5 8.5C0.5 12.9183 4.08172 16.5 8.5 16.5Z" stroke="white" stroke-linecap="round" stroke-linejoin="round"/>
<path d="M8.49934 13.7094C11.3764 13.7094 13.7086 11.3771 13.7086 8.50007C13.7086 5.62306 11.3764 3.29077 8.49934 3.29077C5.62232 3.29077 3.29004 5.62306 3.29004 8.50007C3.29004 11.3771 5.62232 13.7094 8.49934 13.7094Z" stroke="white" stroke-linecap="round" stroke-linejoin="round"/>
<path d="M13.7093 8.50019H16.5M3.2907 8.50019H0.5M10.3798 7.79396L8.51823 7.75973L8.54986 5.50745L6.65479 9.23693L8.53014 9.22838L8.4654 11.4609L10.3798 7.79396Z" stroke="white" stroke-width="0.8" stroke-linecap="round" stroke-linejoin="round"/>
</svg>
