<svg width="20" height="22" viewBox="0 0 20 22" fill="none" xmlns="http://www.w3.org/2000/svg">
<path d="M9.70853 17.0481H16.9935C17.2772 17.064 17.5602 17.007 17.8156 16.8825C18.071 16.7579 18.2902 16.5701 18.4524 16.3368C18.6146 16.1035 18.7143 15.8325 18.742 15.5498C18.7698 15.267 18.7247 14.9818 18.6109 14.7215C18.2258 13.5576 16.6907 12.1616 16.6907 10.7881C16.6907 7.73933 16.6907 6.93703 15.1888 5.14416C14.7028 4.56708 14.1002 4.09935 13.4205 3.7717L12.5829 3.3652C12.4424 3.28037 12.3211 3.16707 12.227 3.03258C12.1329 2.89809 12.0679 2.74539 12.0363 2.5843C11.9526 2.04131 11.6655 1.55049 11.2332 1.21139C10.8009 0.872295 10.2558 0.710301 9.70853 0.758269C9.17111 0.725997 8.64095 0.895212 8.2216 1.23287C7.80224 1.57052 7.52381 2.05237 7.44068 2.5843C7.40297 2.75095 7.3291 2.90728 7.22428 3.04223C7.11947 3.17717 6.98628 3.28743 6.83414 3.3652L5.99653 3.7717C5.31728 4.09948 4.71504 4.5672 4.22932 5.14416C2.72847 6.93703 2.72847 7.73933 2.72847 10.7881C2.72847 12.1616 1.26292 13.4175 0.877817 14.6509C0.645683 15.3965 0.517314 17.0481 2.46103 17.0481H9.70853Z" stroke="#989CDF" stroke-width="1.5" stroke-linecap="round" stroke-linejoin="round"/>
<path d="M13.1991 17.0483C13.2083 17.5092 13.1243 17.9672 12.9521 18.3949C12.7799 18.8225 12.5232 19.211 12.1972 19.5369C11.8712 19.8629 11.4828 20.1197 11.0551 20.2918C10.6275 20.464 10.1695 20.548 9.70858 20.5389C9.24756 20.5486 8.78933 20.465 8.36148 20.2931C7.93362 20.1211 7.54499 19.8643 7.21898 19.5382C6.89297 19.2121 6.63632 18.8234 6.46448 18.3955C6.29264 17.9676 6.20917 17.5093 6.21908 17.0483" stroke="#989CDF" stroke-width="1.5" stroke-linecap="round" stroke-linejoin="round"/>
</svg>
