<svg width="16" height="21" viewBox="0 0 16 21" fill="none" xmlns="http://www.w3.org/2000/svg">
<path d="M8.00024 1V3M5.00024 11V20M11.0002 11V20M1.00024 15L5.00024 13M11.0002 13L15.0002 15M5.00024 17H11.0002M6.00024 7V7.01M10.0002 7V7.01M2.00024 5C2.00024 4.46957 2.21096 3.96086 2.58603 3.58579C2.9611 3.21071 3.46981 3 4.00024 3H12.0002C12.5307 3 13.0394 3.21071 13.4145 3.58579C13.7895 3.96086 14.0002 4.46957 14.0002 5V9C14.0002 9.53043 13.7895 10.0391 13.4145 10.4142C13.0394 10.7893 12.5307 11 12.0002 11H4.00024C3.46981 11 2.9611 10.7893 2.58603 10.4142C2.21096 10.0391 2.00024 9.53043 2.00024 9V5Z" stroke="black" stroke-width="2" stroke-linecap="round" stroke-linejoin="round"/>
</svg>
