<svg width="20" height="20" viewBox="0 0 20 20" fill="none" xmlns="http://www.w3.org/2000/svg">
<path d="M10 19.5676C8.61667 19.5676 7.31667 19.3049 6.1 18.7796C4.88333 18.2543 3.825 17.5419 2.925 16.6426C2.025 15.7433 1.31267 14.6849 0.788 13.4676C0.263333 12.2503 0.000666667 10.9503 0 9.56759C0 7.40093 0.625 5.45093 1.875 3.71759C3.125 1.98426 4.78333 0.775926 6.85 0.0925926C7.33333 -0.0740741 7.77933 -0.0157408 8.188 0.267593C8.59667 0.550926 8.80067 0.934259 8.8 1.41759C8.8 1.75093 8.70433 2.05493 8.513 2.32959C8.32167 2.60426 8.07567 2.79193 7.775 2.89259C6.34167 3.34259 5.18733 4.18026 4.312 5.40559C3.43667 6.63093 2.99933 8.01826 3 9.56759C3 11.5176 3.67933 13.1719 5.038 14.5306C6.39667 15.8893 8.05067 16.5683 10 16.5676C10.8667 16.5676 11.7043 16.4176 12.513 16.1176C13.3217 15.8176 14.0423 15.3843 14.675 14.8176C14.925 14.5843 15.2293 14.4676 15.588 14.4676C15.9467 14.4676 16.2507 14.5843 16.5 14.8176C16.8833 15.1676 17.0833 15.5636 17.1 16.0056C17.1167 16.4476 16.9333 16.8349 16.55 17.1676C15.65 17.9509 14.646 18.5469 13.538 18.9556C12.43 19.3643 11.2507 19.5683 10 19.5676ZM17 9.56759C17 8.03426 16.5583 6.65526 15.675 5.43059C14.7917 4.20593 13.6333 3.35993 12.2 2.89259C11.9 2.79259 11.6543 2.60526 11.463 2.33059C11.2717 2.05593 11.1757 1.75159 11.175 1.41759C11.175 0.934259 11.3793 0.550926 11.788 0.267593C12.1967 -0.0157408 12.6423 -0.0740741 13.125 0.0925926C15.2083 0.792593 16.875 2.00926 18.125 3.74259C19.375 5.47593 20 7.41759 20 9.56759C20 9.86759 19.9873 10.1719 19.962 10.4806C19.9367 10.7893 19.891 11.1266 19.825 11.4926C19.7417 11.9759 19.496 12.3219 19.088 12.5306C18.68 12.7393 18.234 12.7516 17.75 12.5676C17.4333 12.4509 17.1877 12.2383 17.013 11.9296C16.8383 11.6209 16.784 11.3003 16.85 10.9676C16.9 10.6843 16.9377 10.4343 16.963 10.2176C16.9883 10.0009 17.0007 9.78426 17 9.56759ZM9 10.5676H7C6.71667 10.5676 6.47933 10.4716 6.288 10.2796C6.09667 10.0876 6.00067 9.85026 6 9.56759C5.99933 9.28493 6.09533 9.04759 6.288 8.85559C6.48067 8.66359 6.718 8.56759 7 8.56759H9V6.56759C9 6.28426 9.096 6.04693 9.288 5.85559C9.48 5.66426 9.71733 5.56826 10 5.56759C10.2827 5.56693 10.5203 5.66293 10.713 5.85559C10.9057 6.04826 11.0013 6.28559 11 6.56759V8.56759H13C13.2833 8.56759 13.521 8.66359 13.713 8.85559C13.905 9.04759 14.0007 9.28493 14 9.56759C13.9993 9.85026 13.9033 10.0879 13.712 10.2806C13.5207 10.4733 13.2833 10.5689 13 10.5676H11V12.5676C11 12.8509 10.904 13.0886 10.712 13.2806C10.52 13.4726 10.2827 13.5683 10 13.5676C9.71733 13.5669 9.48 13.4709 9.288 13.2796C9.096 13.0883 9 12.8509 9 12.5676V10.5676Z" fill="#FF00B7"/>
</svg>
