<svg width="11" height="18" viewBox="0 0 11 18" fill="none" xmlns="http://www.w3.org/2000/svg">
<path d="M1.61111 17.1666C1.31643 17.1666 1.03381 17.0496 0.825437 16.8412C0.617063 16.6328 0.5 16.3502 0.5 16.0555V2.7222C0.5 2.42751 0.617063 2.14489 0.825437 1.93652C1.03381 1.72815 1.31643 1.61108 1.61111 1.61108H9.38889C9.68357 1.61108 9.96619 1.72815 10.1746 1.93652C10.3829 2.14489 10.5 2.42751 10.5 2.7222V16.0555C10.5 16.3502 10.3829 16.6328 10.1746 16.8412C9.96619 17.0496 9.68357 17.1666 9.38889 17.1666H1.61111Z" stroke="white" stroke-linecap="round" stroke-linejoin="round"/>
<path d="M7.5832 1.61111C7.62003 1.61111 7.65536 1.59648 7.68141 1.57043C7.70745 1.54438 7.72209 1.50906 7.72209 1.47222C7.72209 1.21437 7.61966 0.967084 7.43733 0.784757C7.255 0.60243 7.00771 0.5 6.74986 0.5H4.24986C3.99201 0.5 3.74473 0.60243 3.5624 0.784757C3.38007 0.967084 3.27764 1.21437 3.27764 1.47222C3.27764 1.50906 3.29227 1.54438 3.31832 1.57043C3.34437 1.59648 3.37969 1.61111 3.41653 1.61111M4.5382 10.4361H2.52625C2.47651 10.4361 2.42768 10.4227 2.38486 10.3974C2.34205 10.3721 2.30682 10.3357 2.28287 10.2921C2.25891 10.2485 2.2471 10.1993 2.24867 10.1495C2.25025 10.0998 2.26514 10.0514 2.29181 10.0094L5.93625 4.26222C6.08514 4.0275 6.44848 4.13306 6.44848 4.41111V8.34167H8.46042C8.51012 8.34171 8.55891 8.35509 8.60168 8.3804C8.64445 8.40572 8.67965 8.44205 8.70359 8.48561C8.72754 8.52916 8.73936 8.57834 8.73783 8.62802C8.73629 8.6777 8.72146 8.72606 8.69486 8.76805L5.05042 14.5153C4.90153 14.75 4.5382 14.6444 4.5382 14.3664V10.4361Z" stroke="white" stroke-linecap="round" stroke-linejoin="round"/>
</svg>
