<svg width="20" height="15" viewBox="0 0 20 15" fill="none" xmlns="http://www.w3.org/2000/svg">
<path d="M9.00554 7.08639C9.00554 5.51239 8.21054 3.21939 6.64654 0.367392C6.37754 -0.122608 5.67654 -0.115608 5.37654 0.347392C4.95721 0.994058 4.33154 1.65439 3.49954 2.32839L3.12954 2.61839L2.77554 2.88639L2.28554 3.26439C0.556541 4.64139 -0.124459 5.86639 0.0255407 7.67539C0.156541 9.27539 1.12454 10.4214 2.78754 10.9454C2.20221 11.6287 1.42754 12.1694 0.463541 12.5674C0.279613 12.6435 0.133456 12.7896 0.0572225 12.9735C-0.019011 13.1573 -0.0190766 13.364 0.0570406 13.5479C0.133158 13.7318 0.279222 13.878 0.463102 13.9542C0.646981 14.0304 0.853613 14.0305 1.03754 13.9544C2.87054 13.1944 4.18654 11.9784 4.94954 10.3204C5.23487 9.70039 5.46287 9.08939 5.63354 8.48739L5.67654 8.33139L5.77854 7.91939L5.84654 7.58939L5.88854 7.35239L5.95454 6.87539C5.99647 6.50359 6.01517 6.12953 6.01054 5.75539L6.00654 5.73139C6.00805 5.6329 6.02895 5.53567 6.06803 5.44525C6.10712 5.35484 6.16363 5.27301 6.23434 5.20443C6.30505 5.13585 6.38858 5.08188 6.48015 5.04558C6.57173 5.00928 6.66955 4.99138 6.76804 4.99289C6.86653 4.9944 6.96376 5.0153 7.05418 5.05438C7.14459 5.09347 7.22643 5.14998 7.295 5.22069C7.36358 5.29141 7.41756 5.37493 7.45385 5.4665C7.49015 5.55808 7.50805 5.6559 7.50654 5.75439C7.52854 7.21506 7.23321 8.70306 6.62054 10.2184L6.59554 10.3064C6.58067 10.3879 6.5884 10.4719 6.61788 10.5494C6.64735 10.6268 6.69747 10.6947 6.76278 10.7457C6.82809 10.7967 6.90611 10.8288 6.98839 10.8387C7.07067 10.8485 7.15407 10.8356 7.22954 10.8014L7.34354 10.7444C7.41687 10.7031 7.48221 10.6574 7.53954 10.6074C8.26154 9.98339 9.00554 8.66239 9.00554 7.08739M15.0005 2.00639H9.75054L9.64854 2.01339C9.45868 2.03747 9.2852 2.13323 9.16364 2.28105C9.04207 2.42887 8.98162 2.61757 8.99466 2.80852C9.00769 2.99946 9.09323 3.17819 9.23376 3.30812C9.37428 3.43805 9.55916 3.50934 9.75054 3.50739H15.0005L15.1455 3.51339C15.5167 3.54944 15.8611 3.72244 16.1116 3.99865C16.3621 4.27487 16.5008 4.63449 16.5005 5.00739V11.0074L16.4935 11.1514C16.4575 11.5224 16.2847 11.8667 16.0086 12.1171C15.7326 12.3676 15.3733 12.5064 15.0005 12.5064H5.75054C5.34454 12.5344 5.00054 12.8274 5.00054 13.2564C5.00054 13.6714 5.33654 14.0064 5.75054 14.0064H15.0005L15.1765 14.0014C15.9404 13.9565 16.6583 13.6214 17.1833 13.0647C17.7082 12.5079 18.0006 11.7716 18.0005 11.0064V10.0064L19.0005 10.0244L19.1355 10.0154C19.3754 9.98296 19.5953 9.86466 19.7545 9.68243C19.9138 9.5002 20.0015 9.2664 20.0015 9.02439V7.02439L19.9935 6.90339C19.964 6.66104 19.8468 6.43786 19.6641 6.27594C19.4813 6.11402 19.2457 6.02455 19.0015 6.02439L18.0005 6.00639V5.00639L17.9955 4.83039C17.9504 4.06668 17.6152 3.34906 17.0585 2.82431C16.5018 2.29956 15.7656 2.00633 15.0005 2.00639Z" fill="#989CDF"/>
</svg>
