<svg width="60" height="60" viewBox="0 0 60 60" fill="none" xmlns="http://www.w3.org/2000/svg">
<circle cx="29.7285" cy="29.7285" r="21.5" stroke="#DA29F9" stroke-width="3"/>
<g filter="url(#filter0_f_850_294)">
<path d="M51.113 27.5032C51.4052 30.3115 51.1415 33.1498 50.3368 35.8561C49.5321 38.5624 48.2022 41.0837 46.4231 43.2761" stroke="#DC3434" stroke-width="3" stroke-linecap="round"/>
<path d="M16.1116 13.0902C19.4304 10.3741 23.4856 8.71256 27.756 8.31912C32.0264 7.92568 36.317 8.81833 40.0761 10.8823" stroke="#DC3434" stroke-width="3" stroke-linecap="round"/>
<path d="M26.5523 50.9926C21.9467 50.3046 17.6889 48.1399 14.4193 44.8241C11.1497 41.5082 9.04505 37.2204 8.42189 32.6056" stroke="#DC3434" stroke-width="3" stroke-linecap="round"/>
</g>
<path d="M25 22C25 21.4696 25.2107 20.9609 25.5858 20.5858C25.9609 20.2107 26.4696 20 27 20H33C33.5304 20 34.0391 20.2107 34.4142 20.5858C34.7893 20.9609 35 21.4696 35 22V24H39C39.2652 24 39.5196 24.1054 39.7071 24.2929C39.8946 24.4804 40 24.7348 40 25C40 25.2652 39.8946 25.5196 39.7071 25.7071C39.5196 25.8946 39.2652 26 39 26H37.931L37.064 38.142C37.0281 38.6466 36.8023 39.1188 36.4321 39.4636C36.0619 39.8083 35.5749 40 35.069 40H24.93C24.4241 40 23.9371 39.8083 23.5669 39.4636C23.1967 39.1188 22.9709 38.6466 22.935 38.142L22.07 26H21C20.7348 26 20.4804 25.8946 20.2929 25.7071C20.1054 25.5196 20 25.2652 20 25C20 24.7348 20.1054 24.4804 20.2929 24.2929C20.4804 24.1054 20.7348 24 21 24H25V22ZM27 24H33V22H27V24ZM24.074 26L24.931 38H35.07L35.927 26H24.074ZM28 28C28.2652 28 28.5196 28.1054 28.7071 28.2929C28.8946 28.4804 29 28.7348 29 29V35C29 35.2652 28.8946 35.5196 28.7071 35.7071C28.5196 35.8946 28.2652 36 28 36C27.7348 36 27.4804 35.8946 27.2929 35.7071C27.1054 35.5196 27 35.2652 27 35V29C27 28.7348 27.1054 28.4804 27.2929 28.2929C27.4804 28.1054 27.7348 28 28 28ZM32 28C32.2652 28 32.5196 28.1054 32.7071 28.2929C32.8946 28.4804 33 28.7348 33 29V35C33 35.2652 32.8946 35.5196 32.7071 35.7071C32.5196 35.8946 32.2652 36 32 36C31.7348 36 31.4804 35.8946 31.2929 35.7071C31.1054 35.5196 31 35.2652 31 35V29C31 28.7348 31.1054 28.4804 31.2929 28.2929C31.4804 28.1054 31.7348 28 32 28Z" fill="#DC3434"/>
<defs>
<filter id="filter0_f_850_294" x="5.92175" y="5.72845" width="47.8068" height="47.7643" filterUnits="userSpaceOnUse" color-interpolation-filters="sRGB">
<feFlood flood-opacity="0" result="BackgroundImageFix"/>
<feBlend mode="normal" in="SourceGraphic" in2="BackgroundImageFix" result="shape"/>
<feGaussianBlur stdDeviation="0.5" result="effect1_foregroundBlur_850_294"/>
</filter>
</defs>
</svg>
