<svg width="80" height="110" viewBox="0 0 80 110" fill="none" xmlns="http://www.w3.org/2000/svg">
<rect x="0.5" y="0.5" width="79" height="109" rx="5.5" fill="url(#paint0_linear_850_286)" stroke="#FF00D9"/>
<path d="M27.584 96.144C26.752 96.144 26.032 95.964 25.424 95.604C24.824 95.236 24.36 94.728 24.032 94.08C23.712 93.424 23.552 92.668 23.552 91.812C23.552 90.948 23.712 90.192 24.032 89.544C24.36 88.888 24.824 88.376 25.424 88.008C26.032 87.64 26.752 87.456 27.584 87.456C28.584 87.456 29.4 87.704 30.032 88.2C30.664 88.688 31.064 89.38 31.232 90.276H29.648C29.536 89.804 29.308 89.432 28.964 89.16C28.62 88.888 28.156 88.752 27.572 88.752C27.044 88.752 26.588 88.876 26.204 89.124C25.828 89.364 25.536 89.716 25.328 90.18C25.128 90.636 25.028 91.18 25.028 91.812C25.028 92.444 25.128 92.988 25.328 93.444C25.536 93.892 25.828 94.24 26.204 94.488C26.588 94.728 27.044 94.848 27.572 94.848C28.156 94.848 28.62 94.724 28.964 94.476C29.308 94.22 29.536 93.868 29.648 93.42H31.232C31.072 94.268 30.672 94.936 30.032 95.424C29.4 95.904 28.584 96.144 27.584 96.144ZM32.5931 96V87.36H34.0331V96H32.5931ZM38.4719 96.144C37.8719 96.144 37.3439 96.016 36.8879 95.76C36.4319 95.496 36.0759 95.128 35.8199 94.656C35.5639 94.184 35.4359 93.64 35.4359 93.024C35.4359 92.384 35.5599 91.824 35.8079 91.344C36.0639 90.864 36.4199 90.488 36.8759 90.216C37.3399 89.944 37.8759 89.808 38.4839 89.808C39.0759 89.808 39.5919 89.94 40.0319 90.204C40.4719 90.468 40.8119 90.824 41.0519 91.272C41.2919 91.712 41.4119 92.208 41.4119 92.76C41.4119 92.84 41.4119 92.928 41.4119 93.024C41.4119 93.12 41.4039 93.22 41.3879 93.324H36.4679V92.4H39.9599C39.9439 91.96 39.7959 91.616 39.5159 91.368C39.2359 91.112 38.8879 90.984 38.4719 90.984C38.1759 90.984 37.9039 91.052 37.6559 91.188C37.4079 91.324 37.2119 91.528 37.0679 91.8C36.9239 92.064 36.8519 92.4 36.8519 92.808V93.156C36.8519 93.532 36.9199 93.856 37.0559 94.128C37.1999 94.4 37.3919 94.608 37.6319 94.752C37.8799 94.888 38.1559 94.956 38.4599 94.956C38.7959 94.956 39.0719 94.884 39.2879 94.74C39.5119 94.596 39.6759 94.404 39.7799 94.164H41.2439C41.1319 94.54 40.9479 94.88 40.6919 95.184C40.4359 95.48 40.1199 95.716 39.7439 95.892C39.3679 96.06 38.9439 96.144 38.4719 96.144ZM44.7575 96.144C44.2615 96.144 43.8495 96.06 43.5215 95.892C43.1935 95.724 42.9495 95.5 42.7895 95.22C42.6295 94.94 42.5495 94.636 42.5495 94.308C42.5495 93.924 42.6455 93.592 42.8375 93.312C43.0375 93.032 43.3295 92.816 43.7135 92.664C44.0975 92.504 44.5695 92.424 45.1295 92.424H46.6535C46.6535 92.104 46.6095 91.84 46.5215 91.632C46.4335 91.416 46.2975 91.256 46.1135 91.152C45.9295 91.048 45.6935 90.996 45.4055 90.996C45.0775 90.996 44.7975 91.072 44.5655 91.224C44.3335 91.368 44.1895 91.592 44.1335 91.896H42.7175C42.7655 91.464 42.9095 91.096 43.1495 90.792C43.3895 90.48 43.7055 90.24 44.0975 90.072C44.4975 89.896 44.9335 89.808 45.4055 89.808C45.9735 89.808 46.4575 89.908 46.8575 90.108C47.2575 90.3 47.5615 90.58 47.7695 90.948C47.9855 91.308 48.0935 91.744 48.0935 92.256V96H46.8695L46.7255 95.028C46.6455 95.188 46.5415 95.336 46.4135 95.472C46.2935 95.608 46.1535 95.728 45.9935 95.832C45.8335 95.928 45.6495 96.004 45.4415 96.06C45.2415 96.116 45.0135 96.144 44.7575 96.144ZM45.0815 95.004C45.3135 95.004 45.5175 94.964 45.6935 94.884C45.8775 94.796 46.0335 94.676 46.1615 94.524C46.2975 94.364 46.4015 94.188 46.4735 93.996C46.5455 93.804 46.5935 93.6 46.6175 93.384V93.36H45.2855C45.0055 93.36 44.7735 93.396 44.5895 93.468C44.4055 93.532 44.2735 93.628 44.1935 93.756C44.1135 93.884 44.0735 94.032 44.0735 94.2C44.0735 94.368 44.1135 94.512 44.1935 94.632C44.2735 94.752 44.3895 94.844 44.5415 94.908C44.6935 94.972 44.8735 95.004 45.0815 95.004ZM49.6321 96V89.952H50.9041L51.0121 90.96C51.1961 90.608 51.4601 90.328 51.8041 90.12C52.1481 89.912 52.5561 89.808 53.0281 89.808C53.5161 89.808 53.9321 89.912 54.2761 90.12C54.6201 90.32 54.8841 90.616 55.0681 91.008C55.2601 91.4 55.3561 91.888 55.3561 92.472V96H53.9161V92.604C53.9161 92.1 53.8041 91.712 53.5801 91.44C53.3561 91.168 53.0241 91.032 52.5841 91.032C52.2961 91.032 52.0361 91.1 51.8041 91.236C51.5801 91.372 51.4001 91.572 51.2641 91.836C51.1361 92.092 51.0721 92.404 51.0721 92.772V96H49.6321Z" fill="white"/>
<circle cx="39.7285" cy="44.7285" r="21.5" stroke="#DA29F9" stroke-width="3"/>
<g filter="url(#filter0_f_850_286)">
<path d="M61.113 42.5032C61.4052 45.3115 61.1415 48.1498 60.3368 50.8561C59.5321 53.5624 58.2022 56.0837 56.4231 58.2761" stroke="#DC3434" stroke-width="3" stroke-linecap="round"/>
<path d="M26.1116 28.0902C29.4304 25.3741 33.4856 23.7126 37.756 23.3191C42.0264 22.9257 46.317 23.8183 50.0761 25.8823" stroke="#DC3434" stroke-width="3" stroke-linecap="round"/>
<path d="M36.5523 65.9926C31.9467 65.3046 27.6889 63.1399 24.4193 59.8241C21.1497 56.5082 19.0451 52.2204 18.4219 47.6056" stroke="#DC3434" stroke-width="3" stroke-linecap="round"/>
</g>
<path d="M35 37C35 36.4696 35.2107 35.9609 35.5858 35.5858C35.9609 35.2107 36.4696 35 37 35H43C43.5304 35 44.0391 35.2107 44.4142 35.5858C44.7893 35.9609 45 36.4696 45 37V39H49C49.2652 39 49.5196 39.1054 49.7071 39.2929C49.8946 39.4804 50 39.7348 50 40C50 40.2652 49.8946 40.5196 49.7071 40.7071C49.5196 40.8946 49.2652 41 49 41H47.931L47.064 53.142C47.0281 53.6466 46.8023 54.1188 46.4321 54.4636C46.0619 54.8083 45.5749 55 45.069 55H34.93C34.4241 55 33.9371 54.8083 33.5669 54.4636C33.1967 54.1188 32.9709 53.6466 32.935 53.142L32.07 41H31C30.7348 41 30.4804 40.8946 30.2929 40.7071C30.1054 40.5196 30 40.2652 30 40C30 39.7348 30.1054 39.4804 30.2929 39.2929C30.4804 39.1054 30.7348 39 31 39H35V37ZM37 39H43V37H37V39ZM34.074 41L34.931 53H45.07L45.927 41H34.074ZM38 43C38.2652 43 38.5196 43.1054 38.7071 43.2929C38.8946 43.4804 39 43.7348 39 44V50C39 50.2652 38.8946 50.5196 38.7071 50.7071C38.5196 50.8946 38.2652 51 38 51C37.7348 51 37.4804 50.8946 37.2929 50.7071C37.1054 50.5196 37 50.2652 37 50V44C37 43.7348 37.1054 43.4804 37.2929 43.2929C37.4804 43.1054 37.7348 43 38 43ZM42 43C42.2652 43 42.5196 43.1054 42.7071 43.2929C42.8946 43.4804 43 43.7348 43 44V50C43 50.2652 42.8946 50.5196 42.7071 50.7071C42.5196 50.8946 42.2652 51 42 51C41.7348 51 41.4804 50.8946 41.2929 50.7071C41.1054 50.5196 41 50.2652 41 50V44C41 43.7348 41.1054 43.4804 41.2929 43.2929C41.4804 43.1054 41.7348 43 42 43Z" fill="#DC3434"/>
<defs>
<filter id="filter0_f_850_286" x="15.9218" y="20.7285" width="47.8068" height="47.7643" filterUnits="userSpaceOnUse" color-interpolation-filters="sRGB">
<feFlood flood-opacity="0" result="BackgroundImageFix"/>
<feBlend mode="normal" in="SourceGraphic" in2="BackgroundImageFix" result="shape"/>
<feGaussianBlur stdDeviation="0.5" result="effect1_foregroundBlur_850_286"/>
</filter>
<linearGradient id="paint0_linear_850_286" x1="40" y1="0" x2="40" y2="110" gradientUnits="userSpaceOnUse">
<stop offset="0.16" stop-color="#1B2153"/>
<stop offset="0.5" stop-color="#1B2153"/>
<stop offset="1" stop-color="#13173A"/>
</linearGradient>
</defs>
</svg>
