<svg width="62" height="62" viewBox="0 0 62 62" fill="none" xmlns="http://www.w3.org/2000/svg">
<circle cx="30.6288" cy="30.6288" r="21.5" stroke="#0E4437" stroke-width="3"/>
<g filter="url(#filter0_f_850_291)">
<path d="M29.3275 52.0895C25.2551 51.8425 21.337 50.4419 18.0309 48.0513C14.7248 45.6607 12.1671 42.3788 10.6566 38.5888C9.14614 34.7989 8.74518 30.6574 9.50059 26.6481C10.256 22.6387 12.1366 18.9271 14.9227 15.9467C17.7088 12.9663 21.2854 10.8401 25.2348 9.81651C29.1842 8.79293 33.3433 8.9142 37.2263 10.1662C41.1094 11.4181 44.556 13.7491 47.1638 16.8867C49.7715 20.0244 51.4326 23.8393 51.9531 27.8859" stroke="url(#paint0_linear_850_291)" stroke-width="3" stroke-linecap="round"/>
</g>
<path d="M20.2948 35.6288L23.9488 27.2708H19.0208V25.8288H25.6708V27.0328L22.0448 35.6288H20.2948ZM26.672 35.6288V34.4108C27.2973 33.9162 27.8946 33.4215 28.464 32.9268C29.0333 32.4322 29.5466 31.9422 30.004 31.4568C30.4613 30.9715 30.8206 30.4955 31.082 30.0288C31.3433 29.5622 31.474 29.1142 31.474 28.6848C31.474 28.4048 31.4226 28.1435 31.32 27.9008C31.2173 27.6582 31.054 27.4622 30.83 27.3128C30.6153 27.1635 30.326 27.0888 29.962 27.0888C29.6073 27.0888 29.304 27.1682 29.052 27.3268C28.8093 27.4855 28.6273 27.7002 28.506 27.9708C28.3846 28.2322 28.324 28.5308 28.324 28.8668H26.7C26.7186 28.1575 26.8726 27.5648 27.162 27.0888C27.4513 26.6128 27.8433 26.2582 28.338 26.0248C28.8326 25.7822 29.388 25.6608 30.004 25.6608C30.6666 25.6608 31.2313 25.7822 31.698 26.0248C32.1646 26.2675 32.524 26.6082 32.776 27.0468C33.028 27.4855 33.154 28.0035 33.154 28.6008C33.154 29.0395 33.07 29.4735 32.902 29.9028C32.7433 30.3228 32.5193 30.7335 32.23 31.1348C31.9406 31.5268 31.614 31.9095 31.25 32.2828C30.8953 32.6468 30.5266 32.9968 30.144 33.3328C29.7613 33.6595 29.3926 33.9628 29.038 34.2428H33.42V35.6288H26.672Z" fill="white"/>
<path d="M35.736 35.6288L39.706 28.6288H40.886L36.916 35.6288H35.736ZM40.566 35.7488C40.2527 35.7488 39.966 35.6788 39.706 35.5388C39.4527 35.3922 39.2494 35.1888 39.096 34.9288C38.9427 34.6622 38.866 34.3488 38.866 33.9888C38.866 33.6222 38.9427 33.3088 39.096 33.0488C39.2494 32.7888 39.4527 32.5888 39.706 32.4488C39.966 32.3022 40.2527 32.2288 40.566 32.2288C40.8927 32.2288 41.1794 32.3022 41.426 32.4488C41.6794 32.5888 41.8794 32.7888 42.026 33.0488C42.1794 33.3088 42.256 33.6222 42.256 33.9888C42.256 34.3488 42.1794 34.6622 42.026 34.9288C41.8794 35.1888 41.6794 35.3922 41.426 35.5388C41.1727 35.6788 40.886 35.7488 40.566 35.7488ZM40.556 34.9088C40.696 34.9088 40.8227 34.8755 40.936 34.8088C41.0494 34.7355 41.1394 34.6322 41.206 34.4988C41.2727 34.3588 41.306 34.1888 41.306 33.9888C41.306 33.7822 41.2727 33.6122 41.206 33.4788C41.1394 33.3455 41.0494 33.2455 40.936 33.1788C40.8294 33.1055 40.706 33.0688 40.566 33.0688C40.4327 33.0688 40.3094 33.1055 40.196 33.1788C40.0827 33.2455 39.9927 33.3455 39.926 33.4788C39.8594 33.6122 39.826 33.7822 39.826 33.9888C39.826 34.1888 39.8594 34.3588 39.926 34.4988C39.9927 34.6322 40.0794 34.7355 40.186 34.8088C40.2994 34.8755 40.4227 34.9088 40.556 34.9088ZM36.116 32.0288C35.796 32.0288 35.506 31.9588 35.246 31.8188C34.9927 31.6788 34.7894 31.4755 34.636 31.2088C34.4894 30.9422 34.416 30.6288 34.416 30.2688C34.416 29.9088 34.4894 29.5988 34.636 29.3388C34.7894 29.0722 34.996 28.8688 35.256 28.7288C35.516 28.5888 35.8027 28.5188 36.116 28.5188C36.436 28.5188 36.7227 28.5888 36.976 28.7288C37.2294 28.8688 37.4294 29.0722 37.576 29.3388C37.7294 29.5988 37.806 29.9088 37.806 30.2688C37.806 30.6288 37.7294 30.9422 37.576 31.2088C37.4294 31.4755 37.2294 31.6788 36.976 31.8188C36.7227 31.9588 36.436 32.0288 36.116 32.0288ZM36.106 31.1888C36.246 31.1888 36.3727 31.1555 36.486 31.0888C36.5994 31.0155 36.686 30.9122 36.746 30.7788C36.8127 30.6388 36.846 30.4688 36.846 30.2688C36.846 30.0688 36.8127 29.8988 36.746 29.7588C36.686 29.6188 36.5994 29.5155 36.486 29.4488C36.3727 29.3755 36.2494 29.3388 36.116 29.3388C35.9827 29.3388 35.856 29.3755 35.736 29.4488C35.6227 29.5155 35.5327 29.6188 35.466 29.7588C35.3994 29.8988 35.366 30.0688 35.366 30.2688C35.366 30.4688 35.3994 30.6388 35.466 30.7788C35.5327 30.9122 35.6227 31.0155 35.736 31.0888C35.8494 31.1555 35.9727 31.1888 36.106 31.1888Z" fill="#D9D9D9"/>
<defs>
<filter id="filter0_f_850_291" x="6.62885" y="6.62885" width="47.8245" height="47.9606" filterUnits="userSpaceOnUse" color-interpolation-filters="sRGB">
<feFlood flood-opacity="0" result="BackgroundImageFix"/>
<feBlend mode="normal" in="SourceGraphic" in2="BackgroundImageFix" result="shape"/>
<feGaussianBlur stdDeviation="0.5" result="effect1_foregroundBlur_850_291"/>
</filter>
<linearGradient id="paint0_linear_850_291" x1="10.8703" y1="42.6454" x2="50.3874" y2="18.6124" gradientUnits="userSpaceOnUse">
<stop stop-color="#2CD27B"/>
<stop offset="1" stop-color="#00FF09"/>
</linearGradient>
</defs>
</svg>
