<svg width="62" height="62" viewBox="0 0 62 62" fill="none" xmlns="http://www.w3.org/2000/svg">
<circle cx="30.5997" cy="30.5996" r="21.5" stroke="#3A0CBB" stroke-width="3"/>
<g filter="url(#filter0_f_850_292)">
<path d="M29.2401 52.0566C25.1685 51.7986 21.2543 50.3875 17.9547 47.988C14.6551 45.5884 12.1063 42.2997 10.6061 38.5057C9.10585 34.7117 8.71605 30.5692 9.48223 26.562C10.2484 22.5548 12.1389 18.8483 14.933 15.8754C17.7271 12.9025 21.3093 10.7859 25.2614 9.77293C29.2134 8.75993 33.3721 8.89231 37.2518 10.1546C41.1314 11.4169 44.5718 13.757 47.1711 16.9015C49.7705 20.0461 51.4214 23.8654 51.9312 27.9132" stroke="url(#paint0_linear_850_292)" stroke-width="3" stroke-linecap="round"/>
</g>
<path d="M22.1433 35.6912C21.4153 35.6912 20.7993 35.5559 20.2953 35.2852C19.8006 35.0145 19.404 34.6552 19.1053 34.2072C18.8066 33.7499 18.5873 33.2412 18.4473 32.6812C18.3073 32.1212 18.2373 31.5472 18.2373 30.9592C18.2373 29.8672 18.3913 28.9199 18.6993 28.1172C19.0073 27.3052 19.446 26.6752 20.0153 26.2272C20.594 25.7792 21.2893 25.5552 22.1013 25.5552C22.7733 25.5552 23.338 25.6859 23.7953 25.9472C24.262 26.1992 24.626 26.5352 24.8873 26.9552C25.1486 27.3752 25.3073 27.8325 25.3633 28.3272H23.7953C23.7113 27.8885 23.52 27.5525 23.2213 27.3192C22.932 27.0765 22.554 26.9552 22.0873 26.9552C21.6673 26.9552 21.294 27.0859 20.9673 27.3472C20.6406 27.6085 20.384 28.0005 20.1973 28.5232C20.0106 29.0459 19.9033 29.7085 19.8753 30.5112C19.8753 30.5299 19.8753 30.5485 19.8753 30.5672C19.8753 30.5765 19.8753 30.5905 19.8753 30.6092C20.0246 30.3385 20.2253 30.1005 20.4773 29.8952C20.7293 29.6805 21.0186 29.5125 21.3453 29.3912C21.6813 29.2699 22.0406 29.2092 22.4233 29.2092C22.974 29.2092 23.4826 29.3399 23.9493 29.6012C24.4253 29.8532 24.808 30.2172 25.0973 30.6932C25.396 31.1692 25.5453 31.7292 25.5453 32.3732C25.5453 32.9612 25.4053 33.5072 25.1253 34.0112C24.8453 34.5152 24.4486 34.9212 23.9353 35.2292C23.422 35.5372 22.8246 35.6912 22.1433 35.6912ZM22.0453 34.2492C22.4093 34.2492 22.7313 34.1699 23.0113 34.0112C23.2913 33.8525 23.5106 33.6379 23.6693 33.3672C23.8373 33.0965 23.9213 32.7885 23.9213 32.4432C23.9213 32.0792 23.8373 31.7619 23.6693 31.4912C23.5106 31.2205 23.2866 31.0105 22.9973 30.8612C22.7173 30.7119 22.3953 30.6372 22.0313 30.6372C21.6766 30.6372 21.3546 30.7165 21.0653 30.8752C20.7853 31.0245 20.5613 31.2345 20.3933 31.5052C20.2253 31.7759 20.1413 32.0839 20.1413 32.4292C20.1413 32.7839 20.2253 33.0965 20.3933 33.3672C20.5613 33.6379 20.7853 33.8525 21.0653 34.0112C21.3546 34.1699 21.6813 34.2492 22.0453 34.2492ZM30.7647 35.6912C30.102 35.6912 29.5047 35.5745 28.9727 35.3412C28.4407 35.0985 28.016 34.7625 27.6987 34.3332C27.3907 33.8945 27.2367 33.3812 27.2367 32.7932C27.2367 32.4012 27.3067 32.0372 27.4467 31.7012C27.5867 31.3652 27.7874 31.0759 28.0487 30.8332C28.31 30.5812 28.6134 30.3945 28.9587 30.2732C28.5014 30.0679 28.1374 29.7832 27.8667 29.4192C27.6054 29.0459 27.4747 28.6305 27.4747 28.1732C27.4747 27.6972 27.6007 27.2632 27.8527 26.8712C28.1047 26.4792 28.4734 26.1619 28.9587 25.9192C29.4534 25.6765 30.0554 25.5552 30.7647 25.5552C31.474 25.5552 32.0714 25.6765 32.5567 25.9192C33.042 26.1619 33.4107 26.4792 33.6627 26.8712C33.9147 27.2632 34.0407 27.6972 34.0407 28.1732C34.0407 28.6212 33.9054 29.0365 33.6347 29.4192C33.3734 29.7925 33.014 30.0772 32.5567 30.2732C32.9114 30.3945 33.2147 30.5812 33.4667 30.8332C33.728 31.0852 33.9287 31.3792 34.0687 31.7152C34.218 32.0419 34.2927 32.4012 34.2927 32.7932C34.2927 33.3812 34.134 33.8945 33.8167 34.3332C33.4994 34.7625 33.0747 35.0985 32.5427 35.3412C32.02 35.5745 31.4274 35.6912 30.7647 35.6912ZM30.7647 34.2772C31.3807 34.2772 31.8427 34.1279 32.1507 33.8292C32.468 33.5212 32.6267 33.1339 32.6267 32.6672C32.6267 32.1445 32.4587 31.7432 32.1227 31.4632C31.796 31.1739 31.3434 31.0292 30.7647 31.0292C30.186 31.0292 29.724 31.1739 29.3787 31.4632C29.0427 31.7432 28.8747 32.1445 28.8747 32.6672C28.8747 33.1339 29.0334 33.5212 29.3507 33.8292C29.6774 34.1279 30.1487 34.2772 30.7647 34.2772ZM30.7647 29.7552C31.2687 29.7552 31.6607 29.6245 31.9407 29.3632C32.23 29.0925 32.3747 28.7565 32.3747 28.3552C32.3747 27.8979 32.23 27.5479 31.9407 27.3052C31.6607 27.0532 31.2687 26.9272 30.7647 26.9272C30.2607 26.9272 29.864 27.0532 29.5747 27.3052C29.2947 27.5479 29.1547 27.8979 29.1547 28.3552C29.1547 28.7659 29.2947 29.1019 29.5747 29.3632C29.864 29.6245 30.2607 29.7552 30.7647 29.7552Z" fill="white"/>
<path d="M36.8727 35.5232L40.8427 28.5232H42.0227L38.0527 35.5232H36.8727ZM41.7027 35.6432C41.3894 35.6432 41.1027 35.5732 40.8427 35.4332C40.5894 35.2865 40.386 35.0832 40.2327 34.8232C40.0794 34.5565 40.0027 34.2432 40.0027 33.8832C40.0027 33.5165 40.0794 33.2032 40.2327 32.9432C40.386 32.6832 40.5894 32.4832 40.8427 32.3432C41.1027 32.1965 41.3894 32.1232 41.7027 32.1232C42.0294 32.1232 42.316 32.1965 42.5627 32.3432C42.816 32.4832 43.016 32.6832 43.1627 32.9432C43.316 33.2032 43.3927 33.5165 43.3927 33.8832C43.3927 34.2432 43.316 34.5565 43.1627 34.8232C43.016 35.0832 42.816 35.2865 42.5627 35.4332C42.3094 35.5732 42.0227 35.6432 41.7027 35.6432ZM41.6927 34.8032C41.8327 34.8032 41.9594 34.7699 42.0727 34.7032C42.186 34.6299 42.276 34.5265 42.3427 34.3932C42.4094 34.2532 42.4427 34.0832 42.4427 33.8832C42.4427 33.6765 42.4094 33.5065 42.3427 33.3732C42.276 33.2399 42.186 33.1399 42.0727 33.0732C41.966 32.9999 41.8427 32.9632 41.7027 32.9632C41.5694 32.9632 41.446 32.9999 41.3327 33.0732C41.2194 33.1399 41.1294 33.2399 41.0627 33.3732C40.996 33.5065 40.9627 33.6765 40.9627 33.8832C40.9627 34.0832 40.996 34.2532 41.0627 34.3932C41.1294 34.5265 41.216 34.6299 41.3227 34.7032C41.436 34.7699 41.5594 34.8032 41.6927 34.8032ZM37.2527 31.9232C36.9327 31.9232 36.6427 31.8532 36.3827 31.7132C36.1294 31.5732 35.926 31.3699 35.7727 31.1032C35.626 30.8365 35.5527 30.5232 35.5527 30.1632C35.5527 29.8032 35.626 29.4932 35.7727 29.2332C35.926 28.9665 36.1327 28.7632 36.3927 28.6232C36.6527 28.4832 36.9394 28.4132 37.2527 28.4132C37.5727 28.4132 37.8594 28.4832 38.1127 28.6232C38.366 28.7632 38.566 28.9665 38.7127 29.2332C38.866 29.4932 38.9427 29.8032 38.9427 30.1632C38.9427 30.5232 38.866 30.8365 38.7127 31.1032C38.566 31.3699 38.366 31.5732 38.1127 31.7132C37.8594 31.8532 37.5727 31.9232 37.2527 31.9232ZM37.2427 31.0832C37.3827 31.0832 37.5094 31.0499 37.6227 30.9832C37.736 30.9099 37.8227 30.8065 37.8827 30.6732C37.9494 30.5332 37.9827 30.3632 37.9827 30.1632C37.9827 29.9632 37.9494 29.7932 37.8827 29.6532C37.8227 29.5132 37.736 29.4099 37.6227 29.3432C37.5094 29.2699 37.386 29.2332 37.2527 29.2332C37.1194 29.2332 36.9927 29.2699 36.8727 29.3432C36.7594 29.4099 36.6694 29.5132 36.6027 29.6532C36.536 29.7932 36.5027 29.9632 36.5027 30.1632C36.5027 30.3632 36.536 30.5332 36.6027 30.6732C36.6694 30.8065 36.7594 30.9099 36.8727 30.9832C36.986 31.0499 37.1094 31.0832 37.2427 31.0832Z" fill="#D9D9D9"/>
<defs>
<filter id="filter0_f_850_292" x="6.59973" y="6.59967" width="47.8317" height="47.957" filterUnits="userSpaceOnUse" color-interpolation-filters="sRGB">
<feFlood flood-opacity="0" result="BackgroundImageFix"/>
<feBlend mode="normal" in="SourceGraphic" in2="BackgroundImageFix" result="shape"/>
<feGaussianBlur stdDeviation="0.5" result="effect1_foregroundBlur_850_292"/>
</filter>
<linearGradient id="paint0_linear_850_292" x1="9.43604" y1="39.6424" x2="51.7634" y2="21.5569" gradientUnits="userSpaceOnUse">
<stop stop-color="#3FA1C6"/>
<stop offset="1" stop-color="#55D0FF"/>
</linearGradient>
</defs>
</svg>
