<svg width="20" height="14" viewBox="0 0 20 14" fill="none" xmlns="http://www.w3.org/2000/svg">
<path d="M3.57143 2.8H16.4286C16.618 2.8 16.7997 2.87375 16.9336 3.00503C17.0676 3.1363 17.1429 3.31435 17.1429 3.5V7.7C17.1429 7.88565 17.0676 8.0637 16.9336 8.19497C16.7997 8.32625 16.618 8.4 16.4286 8.4H3.57143C3.38199 8.4 3.20031 8.32625 3.06635 8.19497C2.9324 8.0637 2.85714 7.88565 2.85714 7.7V3.5C2.85714 3.31435 2.9324 3.1363 3.06635 3.00503C3.20031 2.87375 3.38199 2.8 3.57143 2.8ZM11.4286 7V4.2H8.57143V7H11.4286ZM7.14286 4.2H4.28571V7H7.14286V4.2ZM12.8571 7H15.7143V4.2H12.8571V7ZM2.85714 0H17.1429C18.7186 0 20 1.2558 20 2.8V8.4C19.9997 8.89125 19.8676 9.37379 19.6168 9.79916C19.3661 10.2245 19.0055 10.5778 18.5714 10.8234V12.25C18.5714 13.2146 17.77 14 16.7857 14H12.1429C12.049 14.0002 11.956 13.9822 11.8692 13.9471C11.7825 13.9121 11.7036 13.8606 11.6371 13.7956L10 12.1912L8.36286 13.7956C8.2964 13.8606 8.21753 13.9121 8.13076 13.9471C8.04398 13.9822 7.95101 14.0002 7.85714 14H3.21429C2.23 14 1.42857 13.2146 1.42857 12.25V10.8234C0.994451 10.5778 0.633913 10.2245 0.38316 9.79916C0.132406 9.37379 0.000263414 8.89125 0 8.4V2.8C0 1.2558 1.28143 0 2.85714 0ZM3.21429 12.6H7.56143L8.99 11.2H2.85714V12.25C2.85714 12.4432 3.01714 12.6 3.21429 12.6ZM16.7857 12.6C16.8804 12.6 16.9713 12.5631 17.0383 12.4975C17.1052 12.4318 17.1429 12.3428 17.1429 12.25V11.2H11.01L12.4386 12.6H16.7857ZM17.1429 9.8C17.9314 9.8 18.5714 9.1714 18.5714 8.4V2.8C18.5714 2.0286 17.9314 1.4 17.1429 1.4H2.85714C2.06857 1.4 1.42857 2.0286 1.42857 2.8V8.4C1.42857 9.1714 2.06857 9.8 2.85714 9.8H17.1429Z" fill="#989CDF"/>
</svg>
