<svg width="20" height="20" viewBox="0 0 20 20" fill="none" xmlns="http://www.w3.org/2000/svg">
<path d="M9 15.85L6.425 18.375C6.24167 18.5583 6.01267 18.65 5.738 18.65C5.46333 18.65 5.234 18.55 5.05 18.35C4.85 18.1667 4.75 17.9377 4.75 17.663C4.75 17.3883 4.85 17.1507 5.05 16.95L9 13V11H7L3.025 14.975C2.84167 15.1583 2.61267 15.25 2.338 15.25C2.06333 15.25 1.82567 15.15 1.625 14.95C1.44167 14.7667 1.35 14.5377 1.35 14.263C1.35 13.9883 1.44167 13.759 1.625 13.575L4.15 11H0.975C0.691667 11 0.458333 10.904 0.275 10.712C0.0916668 10.52 0 10.2827 0 10C0 9.71734 0.0960001 9.48 0.288 9.288C0.48 9.096 0.717333 9 1 9H4.15L1.625 6.45C1.44167 6.26667 1.35 6.03767 1.35 5.763C1.35 5.48834 1.45 5.25067 1.65 5.05C1.83333 4.86667 2.06267 4.775 2.338 4.775C2.61333 4.775 2.85067 4.86667 3.05 5.05L7 9H9V7L5.025 3.05C4.84167 2.86667 4.75 2.63767 4.75 2.363C4.75 2.08834 4.85 1.85067 5.05 1.65C5.23333 1.46667 5.46267 1.375 5.738 1.375C6.01333 1.375 6.24233 1.46667 6.425 1.65L9 4.15V1C9 0.71667 9.096 0.479337 9.288 0.288004C9.48 0.0966702 9.71733 0.000670115 10 3.44827e-06C10.2827 -0.000663218 10.5203 0.0953369 10.713 0.288004C10.9057 0.48067 11.0013 0.718003 11 1V4.15L13.55 1.65C13.7333 1.46667 13.9627 1.375 14.238 1.375C14.5133 1.375 14.7507 1.46667 14.95 1.65C15.1333 1.85 15.225 2.08767 15.225 2.363C15.225 2.63834 15.1333 2.86734 14.95 3.05L11 7V9H13L16.95 5.05C17.1333 4.86667 17.3627 4.775 17.638 4.775C17.9133 4.775 18.1507 4.875 18.35 5.075C18.5333 5.25834 18.625 5.48734 18.625 5.762C18.625 6.03667 18.5333 6.266 18.35 6.45L15.85 9H19C19.2833 9 19.521 9.096 19.713 9.288C19.905 9.48 20.0007 9.71734 20 10C19.9993 10.2827 19.9033 10.5203 19.712 10.713C19.5207 10.9057 19.2833 11.0013 19 11H15.85L18.35 13.575C18.5333 13.7583 18.625 13.9877 18.625 14.263C18.625 14.5383 18.5333 14.7673 18.35 14.95C18.15 15.15 17.9127 15.25 17.638 15.25C17.3633 15.25 17.134 15.15 16.95 14.95L13 11H11V13L14.95 16.975C15.1333 17.1583 15.225 17.3877 15.225 17.663C15.225 17.9383 15.125 18.1757 14.925 18.375C14.7417 18.5583 14.5127 18.65 14.238 18.65C13.9633 18.65 13.734 18.5583 13.55 18.375L11 15.85V19.025C11 19.3083 10.904 19.5417 10.712 19.725C10.52 19.9083 10.2827 20 10 20C9.71733 20 9.48 19.904 9.288 19.712C9.096 19.52 9 19.2827 9 19V15.85Z" fill="#989CDF"/>
</svg>
