<svg width="22" height="22" viewBox="0 0 22 22" fill="none" xmlns="http://www.w3.org/2000/svg">
<path d="M17.3636 3.72729H4.63636C4.39526 3.72729 4.16403 3.82307 3.99354 3.99356C3.82305 4.16405 3.72727 4.39528 3.72727 4.63639V17.3637C3.72727 17.6048 3.82305 17.836 3.99354 18.0065C4.16403 18.177 4.39526 18.2727 4.63636 18.2727H17.3636C17.6047 18.2727 17.836 18.177 18.0065 18.0065C18.1769 17.836 18.2727 17.6048 18.2727 17.3637V4.63639C18.2727 4.39528 18.1769 4.16405 18.0065 3.99356C17.836 3.82307 17.6047 3.72729 17.3636 3.72729Z" stroke="#989CDF" stroke-width="2" stroke-linejoin="round"/>
<path d="M13.7273 8.27271H8.27273V13.7272H13.7273V8.27271Z" stroke="#989CDF" stroke-width="2" stroke-linejoin="round"/>
<path d="M6.86818 1V3.72727" stroke="#989CDF" stroke-width="2" stroke-linecap="round" stroke-linejoin="round"/>
<path d="M6.86818 18.2727V21" stroke="#989CDF" stroke-width="2" stroke-linecap="round" stroke-linejoin="round"/>
<path d="M11 1V3.72727" stroke="#989CDF" stroke-width="2" stroke-linecap="round" stroke-linejoin="round"/>
<path d="M11 18.2727V21" stroke="#989CDF" stroke-width="2" stroke-linecap="round" stroke-linejoin="round"/>
<path d="M15.1318 1V3.72727" stroke="#989CDF" stroke-width="2" stroke-linecap="round" stroke-linejoin="round"/>
<path d="M15.1318 18.2727V21" stroke="#989CDF" stroke-width="2" stroke-linecap="round" stroke-linejoin="round"/>
<path d="M1 6.86804H3.72727" stroke="#989CDF" stroke-width="2" stroke-linecap="round" stroke-linejoin="round"/>
<path d="M18.2727 6.86804H21" stroke="#989CDF" stroke-width="2" stroke-linecap="round" stroke-linejoin="round"/>
<path d="M1 11H3.72727" stroke="#989CDF" stroke-width="2" stroke-linecap="round" stroke-linejoin="round"/>
<path d="M18.2727 11H21" stroke="#989CDF" stroke-width="2" stroke-linecap="round" stroke-linejoin="round"/>
<path d="M1 15.132H3.72727" stroke="#989CDF" stroke-width="2" stroke-linecap="round" stroke-linejoin="round"/>
<path d="M18.2727 15.132H21" stroke="#989CDF" stroke-width="2" stroke-linecap="round" stroke-linejoin="round"/>
</svg>
