<svg width="22" height="22" viewBox="0 0 22 22" fill="none" xmlns="http://www.w3.org/2000/svg">
<path d="M5.44444 11H16.5556M1 5.44444V3.22222C1 2.63285 1.23413 2.06762 1.65087 1.65087C2.06762 1.23413 2.63285 1 3.22222 1H5.44444M1 16.5556V18.7778C1 19.3671 1.23413 19.9324 1.65087 20.3491C2.06762 20.7659 2.63285 21 3.22222 21H5.44444M16.5556 1H18.7778C19.3671 1 19.9324 1.23413 20.3491 1.65087C20.7659 2.06762 21 2.63285 21 3.22222V5.44444M16.5556 21H18.7778C19.3671 21 19.9324 20.7659 20.3491 20.3491C20.7659 19.9324 21 19.3671 21 18.7778V16.5556" stroke="#989CDF" stroke-width="2" stroke-linecap="round" stroke-linejoin="round"/>
</svg>
