<svg width="20" height="15" viewBox="0 0 20 15" fill="none" xmlns="http://www.w3.org/2000/svg">
<path d="M16.7087 1.42277L14.2986 1.93245L12.8269 2.24289L12.812 2.24582L12.7979 2.24929C12.7818 2.25318 12.7729 2.25397 12.77 2.25408L12.7692 2.25353C12.7649 2.25165 12.7538 2.24625 12.7373 2.23447C12.6691 2.18573 12.6385 2.14077 12.6194 2.07536C12.6086 2.00771 12.6194 1.97732 12.6486 1.9338C12.6802 1.88683 12.7048 1.86562 12.7835 1.85028L12.7854 1.84921L17.0676 1.00738C17.1574 0.989736 17.1834 1.00514 17.2141 1.02574C17.2448 1.04637 17.2688 1.06463 17.2865 1.15436L18.1366 5.47858C18.1442 5.51714 18.1469 5.55126 18.0985 5.62824C18.0791 5.65892 18.0658 5.66872 18.0607 5.67226C18.0553 5.67594 18.0361 5.68782 17.9896 5.69749C17.9674 5.70186 17.9568 5.70016 17.949 5.69844C17.9392 5.69627 17.9097 5.68855 17.8595 5.65481C17.809 5.62093 17.7908 5.59658 17.7852 5.58848C17.7807 5.58191 17.7751 5.57273 17.7707 5.55051L17.768 5.53696L17.4568 4.06467L16.9671 1.74918L11.5224 9.85846C11.308 10.1777 11.0352 10.3624 10.6532 10.4417L16.7087 1.42277ZM5.29559 7.35972C5.67909 7.28828 6.0017 7.35574 6.32169 7.5711L10.6098 10.4503C10.2744 10.5116 9.98553 10.4678 9.70537 10.3135L9.58373 10.2389L5.29559 7.35972ZM1.09635 13.2023C1.02661 13.1557 1.01451 13.126 1.00494 13.0774C0.995509 13.0292 0.995747 12.9994 1.04117 12.9323L4.38467 7.9526C4.59916 7.63325 4.87253 7.44875 5.25439 7.36852L1.37306 13.1493C1.32458 13.2214 1.29535 13.2322 1.25034 13.241C1.20253 13.2503 1.16901 13.2508 1.09635 13.2023Z" stroke="#9D1A78" stroke-width="2"/>
</svg>
