<svg width="16" height="18" viewBox="0 0 16 18" fill="none" xmlns="http://www.w3.org/2000/svg">
<path d="M7.96775 13.6764H13.6338C13.8545 13.6888 14.0746 13.6445 14.2732 13.5476C14.4719 13.4507 14.6424 13.3046 14.7685 13.1232C14.8947 12.9417 14.9722 12.731 14.9938 12.511C15.0154 12.2911 14.9803 12.0693 14.8918 11.8668C14.5923 10.9616 13.3984 9.87577 13.3984 8.80746C13.3984 6.4362 13.3983 5.81218 12.2302 4.41772C11.8522 3.96887 11.3835 3.60508 10.8549 3.35023L10.2034 3.03407C10.0941 2.96809 9.99977 2.87996 9.92655 2.77536C9.85333 2.67075 9.8028 2.55199 9.77823 2.42669C9.71311 2.00436 9.4898 1.62261 9.15359 1.35887C8.81738 1.09512 8.39343 0.969123 7.96775 1.00643C7.54975 0.981331 7.1374 1.11294 6.81124 1.37557C6.48508 1.63819 6.26852 2.01296 6.20386 2.42669C6.17453 2.55631 6.11708 2.6779 6.03555 2.78286C5.95403 2.88782 5.85044 2.97358 5.73211 3.03407L5.08063 3.35023C4.55233 3.60518 4.08392 3.96896 3.70614 4.41772C2.53881 5.81218 2.53881 6.4362 2.53881 8.80746C2.53881 9.87577 1.39894 10.8526 1.09941 11.8119C0.918864 12.3918 0.819022 13.6764 2.3308 13.6764H7.96775Z" stroke="#989CDF" stroke-width="2" stroke-linecap="round" stroke-linejoin="round"/>
<path d="M10.6826 13.6765C10.6897 14.0349 10.6244 14.3912 10.4905 14.7238C10.3566 15.0564 10.1568 15.3585 9.90331 15.612C9.64978 15.8656 9.34764 16.0653 9.01504 16.1992C8.68243 16.3331 8.3262 16.3985 7.96772 16.3913C7.60915 16.3989 7.25275 16.3339 6.91997 16.2002C6.5872 16.0664 6.28493 15.8667 6.03136 15.613C5.7778 15.3594 5.57818 15.0571 5.44453 14.7243C5.31088 14.3914 5.24595 14.035 5.25367 13.6765" stroke="#989CDF" stroke-width="2" stroke-linecap="round" stroke-linejoin="round"/>
</svg>
