<svg width="14" height="18" viewBox="0 0 14 18" fill="none" xmlns="http://www.w3.org/2000/svg">
<path d="M7 1.2C5.4529 1.2 3.96917 1.83214 2.87521 2.95736C1.78125 4.08258 1.16667 5.6087 1.16667 7.2V8.4H2.33333C2.64275 8.4 2.9395 8.52643 3.15829 8.75147C3.37708 8.97652 3.5 9.28174 3.5 9.6V13.2C3.5 13.5183 3.37708 13.8235 3.15829 14.0485C2.9395 14.2736 2.64275 14.4 2.33333 14.4H1.16667C0.857247 14.4 0.560501 14.2736 0.341709 14.0485C0.122916 13.8235 0 13.5183 0 13.2V7.2C-1.36979e-08 6.25448 0.18106 5.31822 0.532843 4.44468C0.884626 3.57114 1.40024 2.77741 2.05025 2.10883C2.70026 1.44025 3.47194 0.909901 4.32122 0.548067C5.1705 0.186234 6.08075 0 7 0C7.91925 0 8.8295 0.186234 9.67878 0.548067C10.5281 0.909901 11.2997 1.44025 11.9497 2.10883C12.5998 2.77741 13.1154 3.57114 13.4672 4.44468C13.8189 5.31822 14 6.25448 14 7.2V14.4C14 15.1957 13.6927 15.9587 13.1457 16.5213C12.5987 17.0839 11.8569 17.4 11.0833 17.4H8.59367C8.49127 17.5824 8.344 17.7339 8.16665 17.8392C7.9893 17.9445 7.78812 18 7.58333 18H6.41667C6.10725 18 5.8105 17.8736 5.59171 17.6485C5.37292 17.4235 5.25 17.1183 5.25 16.8C5.25 16.4817 5.37292 16.1765 5.59171 15.9515C5.8105 15.7264 6.10725 15.6 6.41667 15.6H7.58333C7.78812 15.6 7.9893 15.6555 8.16665 15.7608C8.344 15.8661 8.49127 16.0176 8.59367 16.2H11.0833C11.5475 16.2 11.9926 16.0104 12.3208 15.6728C12.649 15.3352 12.8333 14.8774 12.8333 14.4H11.6667C11.3572 14.4 11.0605 14.2736 10.8417 14.0485C10.6229 13.8235 10.5 13.5183 10.5 13.2V9.6C10.5 9.28174 10.6229 8.97652 10.8417 8.75147C11.0605 8.52643 11.3572 8.4 11.6667 8.4H12.8333V7.2C12.8333 6.41207 12.6824 5.63185 12.3893 4.9039C12.0961 4.17595 11.6665 3.51451 11.1248 2.95736C10.5831 2.40021 9.94005 1.95825 9.23232 1.65672C8.52459 1.35519 7.76604 1.2 7 1.2Z" fill="#989CDF"/>
</svg>
