<svg width="18" height="13" viewBox="0 0 18 13" fill="none" xmlns="http://www.w3.org/2000/svg">
<path d="M4.5 13C3.25909 13 2.199 12.5734 1.31973 11.7203C0.440455 10.8672 0.000545455 9.82448 0 8.59219C0 7.53594 0.320454 6.59479 0.961364 5.76875C1.60227 4.94271 2.44091 4.41458 3.47727 4.18437C3.81818 2.93854 4.5 1.92969 5.52273 1.15781C6.54545 0.385938 7.70455 0 9 0C10.5955 0 11.949 0.551958 13.0606 1.65588C14.1723 2.75979 14.7278 4.10367 14.7273 5.6875C15.6682 5.79583 16.449 6.19883 17.0697 6.8965C17.6905 7.59417 18.0005 8.40992 18 9.34375C18 10.3594 17.6422 11.2228 16.9265 11.934C16.2109 12.6452 15.3415 13.0005 14.3182 13H9.81818C9.36818 13 8.98309 12.841 8.66291 12.5231C8.34273 12.2051 8.18236 11.8224 8.18182 11.375V7.19063L6.87273 8.45L5.72727 7.3125L9 4.0625L12.2727 7.3125L11.1273 8.45L9.81818 7.19063V11.375H14.3182C14.8909 11.375 15.375 11.1786 15.7705 10.7859C16.1659 10.3932 16.3636 9.9125 16.3636 9.34375C16.3636 8.775 16.1659 8.29427 15.7705 7.90156C15.375 7.50885 14.8909 7.3125 14.3182 7.3125H13.0909V5.6875C13.0909 4.56354 12.6919 3.60533 11.8939 2.81287C11.0959 2.02042 10.1313 1.62446 9 1.625C7.86873 1.62554 6.90409 2.02177 6.10609 2.81369C5.30809 3.6056 4.90909 4.56354 4.90909 5.6875H4.5C3.70909 5.6875 3.03409 5.9651 2.475 6.52031C1.91591 7.07552 1.63636 7.74583 1.63636 8.53125C1.63636 9.31667 1.91591 9.98698 2.475 10.5422C3.03409 11.0974 3.70909 11.375 4.5 11.375H6.54545V13H4.5Z" fill="#989CDF"/>
</svg>
