<svg width="18" height="18" viewBox="0 0 18 18" fill="none" xmlns="http://www.w3.org/2000/svg">
<path d="M0.75 8.75C0.75 13.1684 4.3316 16.75 8.75 16.75C13.1684 16.75 16.75 13.1684 16.75 8.75C16.75 4.3316 13.1684 0.75 8.75 0.75C4.3316 0.75 0.75 4.3316 0.75 8.75Z" stroke="#989CDF" stroke-width="1.5" stroke-linecap="round" stroke-linejoin="round"/>
<path d="M9.55003 0.789978C9.55003 0.789978 11.95 3.94998 11.95 8.74998C11.95 13.55 9.55003 16.71 9.55003 16.71M7.95003 16.71C7.95003 16.71 5.55003 13.55 5.55003 8.74998C5.55003 3.94998 7.95003 0.789978 7.95003 0.789978M1.25403 11.55H16.246M1.25403 5.94998H16.246" stroke="#989CDF" stroke-width="1.5" stroke-linecap="round" stroke-linejoin="round"/>
</svg>
