<svg width="10" height="16" viewBox="0 0 10 16" fill="none" xmlns="http://www.w3.org/2000/svg">
<path d="M2.5 0.75C2.5 0.551088 2.57902 0.360322 2.71967 0.21967C2.86032 0.0790176 3.05109 0 3.25 0L6.25 0C6.44891 0 6.63968 0.0790176 6.78033 0.21967C6.92098 0.360322 7 0.551088 7 0.75C7 0.948912 6.92098 1.13968 6.78033 1.28033C6.63968 1.42098 6.44891 1.5 6.25 1.5H3.25C3.05109 1.5 2.86032 1.42098 2.71967 1.28033C2.57902 1.13968 2.5 0.948912 2.5 0.75ZM9.5 3.75V14.25C9.5 14.7141 9.31563 15.1592 8.98744 15.4874C8.65925 15.8156 8.21413 16 7.75 16H1.75C1.28587 16 0.840752 15.8156 0.512563 15.4874C0.184375 15.1592 0 14.7141 0 14.25V3.75C0 3.28587 0.184375 2.84075 0.512563 2.51256C0.840752 2.18437 1.28587 2 1.75 2H7.75C8.21413 2 8.65925 2.18437 8.98744 2.51256C9.31563 2.84075 9.5 3.28587 9.5 3.75ZM8 3.75C8 3.6837 7.97366 3.62011 7.92678 3.57322C7.87989 3.52634 7.8163 3.5 7.75 3.5H1.75C1.6837 3.5 1.62011 3.52634 1.57322 3.57322C1.52634 3.62011 1.5 3.6837 1.5 3.75V14.25C1.5 14.3163 1.52634 14.3799 1.57322 14.4268C1.62011 14.4737 1.6837 14.5 1.75 14.5H7.75C7.8163 14.5 7.87989 14.4737 7.92678 14.4268C7.97366 14.3799 8 14.3163 8 14.25V3.75ZM6.25 8H5.5V7.25C5.5 7.05109 5.42098 6.86032 5.28033 6.71967C5.13968 6.57902 4.94891 6.5 4.75 6.5C4.55109 6.5 4.36032 6.57902 4.21967 6.71967C4.07902 6.86032 4 7.05109 4 7.25V8H3.25C3.05109 8 2.86032 8.07902 2.71967 8.21967C2.57902 8.36032 2.5 8.55109 2.5 8.75C2.5 8.94891 2.57902 9.13968 2.71967 9.28033C2.86032 9.42098 3.05109 9.5 3.25 9.5H4V10.25C4 10.4489 4.07902 10.6397 4.21967 10.7803C4.36032 10.921 4.55109 11 4.75 11C4.94891 11 5.13968 10.921 5.28033 10.7803C5.42098 10.6397 5.5 10.4489 5.5 10.25V9.5H6.25C6.44891 9.5 6.63968 9.42098 6.78033 9.28033C6.92098 9.13968 7 8.94891 7 8.75C7 8.55109 6.92098 8.36032 6.78033 8.21967C6.63968 8.07902 6.44891 8 6.25 8Z" fill="#FE39C6"/>
</svg>
