<svg width="22" height="22" viewBox="0 0 22 22" fill="none" xmlns="http://www.w3.org/2000/svg">
<path d="M6.03865 1.3584H3.10051C1.80236 1.3584 0.75 2.41076 0.75 3.70891V6.64705C0.75 7.9452 1.80236 8.99756 3.10051 8.99756H6.03865C7.3368 8.99756 8.38916 7.9452 8.38916 6.64705V3.70891C8.38916 2.41076 7.3368 1.3584 6.03865 1.3584Z" stroke="#EDB309" stroke-width="1.5" stroke-linecap="round" stroke-linejoin="round"/>
<path d="M14.6603 1.4382C15.1011 0.997545 15.6988 0.75 16.3221 0.75C16.9454 0.75 17.5431 0.997545 17.9839 1.4382L20.0618 3.51605C20.5024 3.95684 20.7499 4.55459 20.7499 5.17786C20.7499 5.80113 20.5024 6.39889 20.0618 6.83967L17.9839 8.91753C17.5431 9.35818 16.9454 9.60572 16.3221 9.60572C15.6988 9.60572 15.1011 9.35818 14.6603 8.91753L12.5824 6.83967C12.1418 6.39889 11.8942 5.80113 11.8942 5.17786C11.8942 4.55459 12.1418 3.95684 12.5824 3.51605L14.6603 1.4382Z" stroke="#EDB309" stroke-width="1.5" stroke-linecap="round" stroke-linejoin="round"/>
<path d="M6.62628 13.1106H2.51288C1.53927 13.1106 0.75 13.8999 0.75 14.8735V18.9869C0.75 19.9605 1.53927 20.7498 2.51288 20.7498H6.62628C7.59989 20.7498 8.38916 19.9605 8.38916 18.9869V14.8735C8.38916 13.8999 7.59989 13.1106 6.62628 13.1106Z" stroke="#EDB309" stroke-width="1.5" stroke-linecap="round" stroke-linejoin="round"/>
<path d="M17.7913 13.1106H14.8531C13.555 13.1106 12.5026 14.163 12.5026 15.4611V18.3992C12.5026 19.6974 13.555 20.7498 14.8531 20.7498H17.7913C19.0894 20.7498 20.1418 19.6974 20.1418 18.3992V15.4611C20.1418 14.163 19.0894 13.1106 17.7913 13.1106Z" stroke="#EDB309" stroke-width="1.5" stroke-linecap="round" stroke-linejoin="round"/>
</svg>
