<svg width="20" height="20" viewBox="0 0 20 20" fill="none" xmlns="http://www.w3.org/2000/svg">
<path d="M9.02525 1C7.3357 1.18882 5.73379 1.85086 4.40391 2.90993C3.07402 3.969 2.07019 5.38206 1.50797 6.98648C0.945746 8.59089 0.84797 10.3214 1.2259 11.979C1.60382 13.6365 2.44209 15.1536 3.64422 16.3558C4.84635 17.5579 6.36349 18.3962 8.02102 18.7741C9.67855 19.152 11.4091 19.0543 13.0135 18.492C14.6179 17.9298 16.031 16.926 17.0901 15.5961C18.1491 14.2662 18.8112 12.6643 19 10.9747H9.02525V1Z" stroke="#55D0FF" stroke-width="2" stroke-linecap="round" stroke-linejoin="round"/>
<path d="M18.5416 6.96291H13.0372V1.4585C14.3062 1.90908 15.4588 2.63697 16.411 3.58917C17.3632 4.54137 18.0911 5.69392 18.5416 6.96291Z" stroke="#55D0FF" stroke-width="2" stroke-linecap="round" stroke-linejoin="round"/>
</svg>
