<svg width="16" height="21" viewBox="0 0 16 21" fill="none" xmlns="http://www.w3.org/2000/svg">
<path d="M2.66667 1.96875H7.33333V5.57812C7.33333 7.21055 8.675 8.53125 10.3333 8.53125H14V18.375C14 18.7359 13.7 19.0312 13.3333 19.0312H2.66667C2.3 19.0312 2 18.7359 2 18.375V2.625C2 2.26406 2.3 1.96875 2.66667 1.96875ZM9.33333 2.78496L13.1708 6.5625H10.3333C9.77917 6.5625 9.33333 6.12363 9.33333 5.57812V2.78496ZM2.66667 0C1.19583 0 0 1.17715 0 2.625V18.375C0 19.8229 1.19583 21 2.66667 21H13.3333C14.8042 21 16 19.8229 16 18.375V7.64941C16 6.95215 15.7208 6.28359 15.2208 5.79141L10.1125 0.766992C9.6125 0.274805 8.9375 0 8.22917 0H2.66667ZM5 10.5C4.44583 10.5 4 10.9389 4 11.4844C4 12.0299 4.44583 12.4688 5 12.4688H11C11.5542 12.4688 12 12.0299 12 11.4844C12 10.9389 11.5542 10.5 11 10.5H5ZM5 14.4375C4.44583 14.4375 4 14.8764 4 15.4219C4 15.9674 4.44583 16.4062 5 16.4062H11C11.5542 16.4062 12 15.9674 12 15.4219C12 14.8764 11.5542 14.4375 11 14.4375H5Z" fill="#FE39C6"/>
</svg>
