<svg width="15" height="15" viewBox="0 0 15 15" fill="none" xmlns="http://www.w3.org/2000/svg">
<path d="M3.6 1.44C3.6 1.05809 3.75171 0.691819 4.02177 0.421766C4.29182 0.151714 4.65809 0 5.04 0H9.36C9.74191 0 10.1082 0.151714 10.3782 0.421766C10.6483 0.691819 10.8 1.05809 10.8 1.44V2.88H13.68C13.871 2.88 14.0541 2.95586 14.1891 3.09088C14.3241 3.22591 14.4 3.40904 14.4 3.6C14.4 3.79096 14.3241 3.97409 14.1891 4.10912C14.0541 4.24414 13.871 4.32 13.68 4.32H12.9103L12.2861 13.0622C12.2602 13.4255 12.0977 13.7655 11.8311 14.0138C11.5646 14.262 11.2139 14.4 10.8497 14.4H3.5496C3.18538 14.4 2.83469 14.262 2.56816 14.0138C2.30163 13.7655 2.13906 13.4255 2.1132 13.0622L1.4904 4.32H0.72C0.529044 4.32 0.345909 4.24414 0.210883 4.10912C0.0758569 3.97409 0 3.79096 0 3.6C0 3.40904 0.0758569 3.22591 0.210883 3.09088C0.345909 2.95586 0.529044 2.88 0.72 2.88H3.6V1.44ZM5.04 2.88H9.36V1.44H5.04V2.88ZM2.93328 4.32L3.55032 12.96H10.8504L11.4674 4.32H2.93328ZM5.76 5.76C5.95096 5.76 6.13409 5.83586 6.26912 5.97088C6.40414 6.10591 6.48 6.28904 6.48 6.48V10.8C6.48 10.991 6.40414 11.1741 6.26912 11.3091C6.13409 11.4441 5.95096 11.52 5.76 11.52C5.56904 11.52 5.38591 11.4441 5.25088 11.3091C5.11586 11.1741 5.04 10.991 5.04 10.8V6.48C5.04 6.28904 5.11586 6.10591 5.25088 5.97088C5.38591 5.83586 5.56904 5.76 5.76 5.76ZM8.64 5.76C8.83096 5.76 9.01409 5.83586 9.14912 5.97088C9.28414 6.10591 9.36 6.28904 9.36 6.48V10.8C9.36 10.991 9.28414 11.1741 9.14912 11.3091C9.01409 11.4441 8.83096 11.52 8.64 11.52C8.44905 11.52 8.26591 11.4441 8.13088 11.3091C7.99586 11.1741 7.92 10.991 7.92 10.8V6.48C7.92 6.28904 7.99586 6.10591 8.13088 5.97088C8.26591 5.83586 8.44905 5.76 8.64 5.76Z" fill="#2FE55D"/>
</svg>
