<svg width="16" height="16" viewBox="0 0 16 16" fill="none" xmlns="http://www.w3.org/2000/svg">
<path d="M8 0.5C8.00423 0.5 8.00999 0.500453 8.01562 0.50293C8.0213 0.505464 8.02794 0.510898 8.03516 0.518555H8.03613L15.3057 8.21191C15.5649 8.48655 15.5647 8.94303 15.3066 9.21777L15.3057 9.21875C15.1864 9.34614 15.0299 9.41211 14.8711 9.41211H13.6055V15.4014C13.6055 15.4384 13.5912 15.4655 13.5762 15.4814C13.5616 15.4968 13.549 15.5 13.54 15.5H9.34766V11.3125H6.37109V15.5H2.45996C2.45103 15.4999 2.43818 15.4966 2.42383 15.4814C2.40894 15.4655 2.39551 15.4381 2.39551 15.4014V9.41211H1.12988C0.809713 9.41211 0.500077 9.12687 0.5 8.71582C0.5 8.57091 0.541249 8.43279 0.613281 8.31836L0.695312 8.21191L7.96484 0.518555H7.96582C7.97314 0.51079 7.97963 0.505441 7.98535 0.50293C7.99084 0.500518 7.99584 0.500043 8 0.5Z" stroke="#9A3CFF"/>
</svg>
