<svg width="24" height="24" viewBox="0 0 24 24" fill="none" xmlns="http://www.w3.org/2000/svg">
<path d="M12 15C16.7891 15 19.5157 16.4298 21.043 17.957C22.5995 19.5136 23 21.2568 23 22C23 22.325 22.9216 22.5023 22.8555 22.6016C22.7851 22.7071 22.6841 22.7898 22.5527 22.8555C22.4176 22.9231 22.2704 22.9621 22.1484 22.9824C22.0898 22.9922 22.0428 22.997 22.0146 22.999C22.001 23 21.9922 22.9999 21.9893 23H2.01074L1.98535 22.999C1.95725 22.997 1.9102 22.9922 1.85156 22.9824C1.72962 22.9621 1.58243 22.9231 1.44727 22.8555C1.3159 22.7898 1.21487 22.7071 1.14453 22.6016C1.07836 22.5023 1 22.325 1 22C1 21.2568 1.40047 19.5136 2.95703 17.957C4.48429 16.4298 7.21089 15 12 15ZM12 1C13.3261 1 14.5975 1.52716 15.5352 2.46484C16.4728 3.40253 17 4.67392 17 6C17 7.32608 16.4728 8.59747 15.5352 9.53516C14.5975 10.4728 13.3261 11 12 11C10.6739 11 9.40253 10.4728 8.46484 9.53516C7.52716 8.59747 7 7.32608 7 6C7 4.67392 7.52716 3.40253 8.46484 2.46484C9.40253 1.52716 10.6739 1 12 1Z" stroke="white" stroke-width="2"/>
</svg>
