<svg width="25" height="25" viewBox="0 0 25 25" fill="none" xmlns="http://www.w3.org/2000/svg">
<path d="M15.375 5.3125H24M19.6875 9.625V1M9.625 21.125V18.25C9.625 17.4875 9.3221 16.7562 8.78293 16.2171C8.24376 15.6779 7.5125 15.375 6.75 15.375H3.875C3.1125 15.375 2.38123 15.6779 1.84207 16.2171C1.3029 16.7562 1 17.4875 1 18.25L1 21.125C1 21.8875 1.3029 22.6188 1.84207 23.1579C2.38123 23.6971 3.1125 24 3.875 24H6.75C7.5125 24 8.24376 23.6971 8.78293 23.1579C9.3221 22.6188 9.625 21.8875 9.625 21.125ZM9.625 6.75V3.875C9.625 3.1125 9.3221 2.38123 8.78293 1.84207C8.24376 1.3029 7.5125 1 6.75 1H3.875C3.1125 1 2.38123 1.3029 1.84207 1.84207C1.3029 2.38123 1 3.1125 1 3.875L1 6.75C1 7.5125 1.3029 8.24376 1.84207 8.78293C2.38123 9.3221 3.1125 9.625 3.875 9.625H6.75C7.5125 9.625 8.24376 9.3221 8.78293 8.78293C9.3221 8.24376 9.625 7.5125 9.625 6.75ZM24 21.125V18.25C24 17.4875 23.6971 16.7562 23.1579 16.2171C22.6188 15.6779 21.8875 15.375 21.125 15.375H18.25C17.4875 15.375 16.7562 15.6779 16.2171 16.2171C15.6779 16.7562 15.375 17.4875 15.375 18.25V21.125C15.375 21.8875 15.6779 22.6188 16.2171 23.1579C16.7562 23.6971 17.4875 24 18.25 24H21.125C21.8875 24 22.6188 23.6971 23.1579 23.1579C23.6971 22.6188 24 21.8875 24 21.125Z" stroke="white" stroke-width="2" stroke-linecap="round" stroke-linejoin="round"/>
</svg>
