<svg width="25" height="25" viewBox="0 0 25 25" fill="none" xmlns="http://www.w3.org/2000/svg">
<path d="M10.9522 1.67535C8.85698 1.90951 6.87044 2.73052 5.22123 4.04389C3.57201 5.35726 2.32716 7.10962 1.62994 9.09928C0.932718 11.0889 0.811465 13.235 1.28014 15.2906C1.74881 17.3461 2.78835 19.2275 4.27913 20.7183C5.76991 22.2091 7.65133 23.2486 9.70685 23.7173C11.7624 24.186 13.9085 24.0647 15.8981 23.3675C17.8878 22.6703 19.6401 21.4254 20.9535 19.7762C22.2669 18.127 23.0879 16.1404 23.322 14.0452H10.9522V1.67535Z" stroke="white" stroke-width="2" stroke-linecap="round" stroke-linejoin="round"/>
<path d="M24 9.07243H15.9276V1C17.7886 1.6608 19.4789 2.72827 20.8753 4.12471C22.2717 5.52115 23.3392 7.2114 24 9.07243Z" stroke="white" stroke-width="2" stroke-linecap="round" stroke-linejoin="round"/>
</svg>
