<svg width="24" height="24" viewBox="0 0 24 24" fill="none" xmlns="http://www.w3.org/2000/svg">
<path d="M14.75 5.125H23H14.75ZM18.875 9.25V1V9.25ZM9.25 20.25V17.5C9.25 16.7707 8.96027 16.0712 8.44454 15.5555C7.92882 15.0397 7.22935 14.75 6.5 14.75H3.75C3.02065 14.75 2.32118 15.0397 1.80546 15.5555C1.28973 16.0712 1 16.7707 1 17.5L1 20.25C1 20.9793 1.28973 21.6788 1.80546 22.1945C2.32118 22.7103 3.02065 23 3.75 23H6.5C7.22935 23 7.92882 22.7103 8.44454 22.1945C8.96027 21.6788 9.25 20.9793 9.25 20.25ZM9.25 6.5V3.75C9.25 3.02065 8.96027 2.32118 8.44454 1.80546C7.92882 1.28973 7.22935 1 6.5 1H3.75C3.02065 1 2.32118 1.28973 1.80546 1.80546C1.28973 2.32118 1 3.02065 1 3.75V6.5C1 7.22935 1.28973 7.92882 1.80546 8.44454C2.32118 8.96027 3.02065 9.25 3.75 9.25H6.5C7.22935 9.25 7.92882 8.96027 8.44454 8.44454C8.96027 7.92882 9.25 7.22935 9.25 6.5ZM23 20.25V17.5C23 16.7707 22.7103 16.0712 22.1945 15.5555C21.6788 15.0397 20.9793 14.75 20.25 14.75H17.5C16.7707 14.75 16.0712 15.0397 15.5555 15.5555C15.0397 16.0712 14.75 16.7707 14.75 17.5V20.25C14.75 20.9793 15.0397 21.6788 15.5555 22.1945C16.0712 22.7103 16.7707 23 17.5 23H20.25C20.9793 23 21.6788 22.7103 22.1945 22.1945C22.7103 21.6788 23 20.9793 23 20.25Z" fill="white"/>
<path d="M14.75 5.125H23M18.875 9.25V1M9.25 20.25V17.5C9.25 16.7707 8.96027 16.0712 8.44454 15.5555C7.92882 15.0397 7.22935 14.75 6.5 14.75H3.75C3.02065 14.75 2.32118 15.0397 1.80546 15.5555C1.28973 16.0712 1 16.7707 1 17.5L1 20.25C1 20.9793 1.28973 21.6788 1.80546 22.1945C2.32118 22.7103 3.02065 23 3.75 23H6.5C7.22935 23 7.92882 22.7103 8.44454 22.1945C8.96027 21.6788 9.25 20.9793 9.25 20.25ZM9.25 6.5V3.75C9.25 3.02065 8.96027 2.32118 8.44454 1.80546C7.92882 1.28973 7.22935 1 6.5 1H3.75C3.02065 1 2.32118 1.28973 1.80546 1.80546C1.28973 2.32118 1 3.02065 1 3.75V6.5C1 7.22935 1.28973 7.92882 1.80546 8.44454C2.32118 8.96027 3.02065 9.25 3.75 9.25H6.5C7.22935 9.25 7.92882 8.96027 8.44454 8.44454C8.96027 7.92882 9.25 7.22935 9.25 6.5ZM23 20.25V17.5C23 16.7707 22.7103 16.0712 22.1945 15.5555C21.6788 15.0397 20.9793 14.75 20.25 14.75H17.5C16.7707 14.75 16.0712 15.0397 15.5555 15.5555C15.0397 16.0712 14.75 16.7707 14.75 17.5V20.25C14.75 20.9793 15.0397 21.6788 15.5555 22.1945C16.0712 22.7103 16.7707 23 17.5 23H20.25C20.9793 23 21.6788 22.7103 22.1945 22.1945C22.7103 21.6788 23 20.9793 23 20.25Z" stroke="white" stroke-width="2" stroke-linecap="round" stroke-linejoin="round"/>
</svg>
