<svg width="26" height="26" viewBox="0 0 26 26" fill="none" xmlns="http://www.w3.org/2000/svg">
<path d="M11.3849 1C9.19858 1.24436 7.12567 2.10117 5.40475 3.4718C3.68384 4.84243 2.38486 6.67119 1.65733 8.74759C0.929793 10.824 0.803268 13.0636 1.29232 15.2088C1.78136 17.3539 2.8661 19.3174 4.4217 20.8732C5.97729 22.4289 7.94051 23.5138 10.0854 24.0029C12.2303 24.492 14.4697 24.3655 16.5459 23.6379C18.622 22.9102 20.4505 21.6111 21.821 19.89C23.1915 18.1689 24.0482 16.0957 24.2925 13.9091H11.3849V1Z" fill="white" stroke="white" stroke-width="2" stroke-linecap="round" stroke-linejoin="round"/>
<path d="M25 9.54312H16.5766V1.11975C18.5185 1.80928 20.2823 2.92316 21.7394 4.38031C23.1966 5.83745 24.3104 7.60119 25 9.54312Z" fill="white" stroke="white" stroke-width="2" stroke-linecap="round" stroke-linejoin="round"/>
</svg>
