<svg width="36" height="44" viewBox="0 0 36 44" fill="none" xmlns="http://www.w3.org/2000/svg">
<path d="M33.2084 43C33.4436 43.0003 33.6765 42.9532 33.8939 42.8614C34.1112 42.7697 34.3086 42.6351 34.4749 42.4654C34.6412 42.2957 34.7731 42.0942 34.863 41.8725C34.9528 41.6507 34.999 41.413 34.9987 41.173V11.9162C34.9992 10.483 34.7231 9.06373 34.186 7.73947C33.649 6.4152 32.8616 5.21187 31.8688 4.19818C30.876 3.1845 29.6972 2.38032 28.3999 1.83157C27.1025 1.28282 25.7119 1.00025 24.3075 1H2.79029C2.31548 1 1.86011 1.19249 1.52436 1.53512C1.18862 1.87774 1 2.34245 1 2.827V41.1749C1 41.4147 1.04632 41.6522 1.13631 41.8738C1.22631 42.0953 1.35821 42.2966 1.52448 42.4661C1.69075 42.6356 1.88812 42.77 2.10532 42.8616C2.32252 42.9532 2.55528 43.0003 2.79029 43H33.2084Z" stroke="#55D0FF" stroke-width="2" stroke-linecap="round" stroke-linejoin="round"/>
<path d="M6.36963 33.8689V25.6522C6.36963 24.9256 6.65246 24.2288 7.1559 23.715C7.65934 23.2013 8.34216 22.9126 9.05413 22.9126C9.76611 22.9126 10.4489 23.2013 10.9524 23.715C11.4558 24.2288 11.7386 24.9256 11.7386 25.6522V33.8689M6.36963 28.3994H11.7386M15.3155 33.8766V28.3975M29.6322 22.9203L24.2632 28.3994L29.6322 33.8785M24.2632 33.8766V22.9203M20.6845 25.6522C20.6845 26.012 20.6151 26.3682 20.4802 26.7006C20.3452 27.033 20.1475 27.335 19.8982 27.5893C19.6489 27.8437 19.353 28.0455 19.0273 28.1832C18.7016 28.3209 18.3525 28.3917 18 28.3917H15.3155V22.9126H18C18.712 22.9126 19.3948 23.2013 19.8982 23.715C20.4017 24.2288 20.6845 24.9256 20.6845 25.6522ZM31.8678 4.20356C30.2905 2.59046 28.2568 1.52339 26.0535 1.15283V8.30429C26.0535 8.78851 26.2419 9.25292 26.5772 9.5955C26.9126 9.93807 27.3674 10.1308 27.8419 10.1313H34.8572C34.4905 7.88568 33.4453 5.81316 31.8678 4.20356Z" stroke="#55D0FF" stroke-width="2" stroke-linecap="round" stroke-linejoin="round"/>
</svg>
