<svg width="12" height="20" viewBox="0 0 12 20" fill="none" xmlns="http://www.w3.org/2000/svg">
<path d="M3.15789 0.9375C3.15789 0.68886 3.25771 0.450403 3.43537 0.274587C3.61304 0.098772 3.85401 0 4.10526 0L7.89474 0C8.14599 0 8.38696 0.098772 8.56463 0.274587C8.74229 0.450403 8.8421 0.68886 8.8421 0.9375C8.8421 1.18614 8.74229 1.4246 8.56463 1.60041C8.38696 1.77623 8.14599 1.875 7.89474 1.875H4.10526C3.85401 1.875 3.61304 1.77623 3.43537 1.60041C3.25771 1.4246 3.15789 1.18614 3.15789 0.9375ZM12 4.6875V17.8125C12 18.3927 11.7671 18.9491 11.3526 19.3593C10.938 19.7695 10.3757 20 9.78947 20H2.21053C1.62426 20 1.062 19.7695 0.647448 19.3593C0.232894 18.9491 0 18.3927 0 17.8125V4.6875C0 4.10734 0.232894 3.55094 0.647448 3.1407C1.062 2.73047 1.62426 2.5 2.21053 2.5H9.78947C10.3757 2.5 10.938 2.73047 11.3526 3.1407C11.7671 3.55094 12 4.10734 12 4.6875ZM10.1053 4.6875C10.1053 4.60462 10.072 4.52513 10.0128 4.46653C9.95355 4.40792 9.87323 4.375 9.78947 4.375H2.21053C2.12677 4.375 2.04645 4.40792 1.98723 4.46653C1.92801 4.52513 1.89474 4.60462 1.89474 4.6875V17.8125C1.89474 17.8954 1.92801 17.9749 1.98723 18.0335C2.04645 18.0921 2.12677 18.125 2.21053 18.125H9.78947C9.87323 18.125 9.95355 18.0921 10.0128 18.0335C10.072 17.9749 10.1053 17.8954 10.1053 17.8125V4.6875ZM7.89474 10H6.94737V9.0625C6.94737 8.81386 6.84756 8.5754 6.66989 8.39959C6.49222 8.22377 6.25126 8.125 6 8.125C5.74874 8.125 5.50778 8.22377 5.33011 8.39959C5.15244 8.5754 5.05263 8.81386 5.05263 9.0625V10H4.10526C3.85401 10 3.61304 10.0988 3.43537 10.2746C3.25771 10.4504 3.15789 10.6889 3.15789 10.9375C3.15789 11.1861 3.25771 11.4246 3.43537 11.6004C3.61304 11.7762 3.85401 11.875 4.10526 11.875H5.05263V12.8125C5.05263 13.0611 5.15244 13.2996 5.33011 13.4754C5.50778 13.6512 5.74874 13.75 6 13.75C6.25126 13.75 6.49222 13.6512 6.66989 13.4754C6.84756 13.2996 6.94737 13.0611 6.94737 12.8125V11.875H7.89474C8.14599 11.875 8.38696 11.7762 8.56463 11.6004C8.74229 11.4246 8.8421 11.1861 8.8421 10.9375C8.8421 10.6889 8.74229 10.4504 8.56463 10.2746C8.38696 10.0988 8.14599 10 7.89474 10Z" fill="#00FF09"/>
</svg>
