<svg width="12" height="21" viewBox="0 0 12 21" fill="none" xmlns="http://www.w3.org/2000/svg">
<path d="M7.5 15.75C7.5 16.375 7.28125 16.9062 6.84375 17.3438C6.40625 17.7812 5.875 18 5.25 18C4.625 18 4.09375 17.7812 3.65625 17.3438C3.21875 16.9062 3 16.375 3 15.75C3 15.2812 3.13672 14.8516 3.41016 14.4609C3.68359 14.0703 4.04688 13.793 4.5 13.6289V9H6V13.6289C6.45312 13.793 6.81641 14.0703 7.08984 14.4609C7.36328 14.8516 7.5 15.2812 7.5 15.75ZM9 15.75C9 15.1484 8.86719 14.5859 8.60156 14.0625C8.33594 13.5391 7.96875 13.1016 7.5 12.75V3.75C7.5 3.125 7.28125 2.59375 6.84375 2.15625C6.40625 1.71875 5.875 1.5 5.25 1.5C4.625 1.5 4.09375 1.71875 3.65625 2.15625C3.21875 2.59375 3 3.125 3 3.75V12.75C2.53125 13.1016 2.16406 13.5391 1.89844 14.0625C1.63281 14.5859 1.5 15.1484 1.5 15.75C1.5 16.7891 1.86523 17.6738 2.5957 18.4043C3.32617 19.1348 4.21094 19.5 5.25 19.5C6.28906 19.5 7.17383 19.1348 7.9043 18.4043C8.63477 17.6738 9 16.7891 9 15.75ZM10.5 15.75C10.5 17.1953 9.98633 18.4316 8.95898 19.459C7.93164 20.4863 6.69531 21 5.25 21C3.80469 21 2.56836 20.4863 1.54102 19.459C0.513672 18.4316 0 17.1953 0 15.75C0 14.3281 0.5 13.1055 1.5 12.082V3.75C1.5 2.71094 1.86523 1.82617 2.5957 1.0957C3.32617 0.365234 4.21094 0 5.25 0C6.28906 0 7.17383 0.365234 7.9043 1.0957C8.63477 1.82617 9 2.71094 9 3.75V12.082C10 13.1055 10.5 14.3281 10.5 15.75ZM12 9V10.5H9.75V9H12ZM12 6V7.5H9.75V6H12ZM12 3V4.5H9.75V3H12Z" fill="#ED6D09"/>
</svg>
