<svg width="23" height="31" viewBox="0 0 23 31" fill="none" xmlns="http://www.w3.org/2000/svg">
<path d="M2.125 2.625C2.125 1.96196 2.38839 1.32607 2.85723 0.857233C3.32607 0.388392 3.96196 0.125 4.625 0.125H19.625C20.288 0.125 20.9239 0.388392 21.3928 0.857233C21.8616 1.32607 22.125 1.96196 22.125 2.625V27.625C22.125 28.288 21.8616 28.9239 21.3928 29.3928C20.9239 29.8616 20.288 30.125 19.625 30.125H2.625C1.96196 30.125 1.32607 29.8616 0.857233 29.3928C0.388392 28.9239 0.125 28.288 0.125 27.625V21.4785C0.125 20.987 0.32 20.5155 0.668 20.168L2.125 18.711V17.625H1.375C1.04348 17.625 0.725537 17.4933 0.491117 17.2589C0.256696 17.0245 0.125 16.7065 0.125 16.375V13.9785C0.125 13.487 0.32 13.0155 0.668 12.668L2.125 11.211V2.625ZM4.625 2.125C4.49239 2.125 4.36521 2.17768 4.27145 2.27145C4.17768 2.36521 4.125 2.49239 4.125 2.625V11.375C4.125 11.8 3.956 12.208 3.655 12.509L2.125 14.039V15.625H2.875C3.20652 15.625 3.52446 15.7567 3.75888 15.9911C3.9933 16.2255 4.125 16.5435 4.125 16.875V18.875C4.125 19.3 3.956 19.708 3.655 20.009L2.125 21.539V27.625C2.125 27.7576 2.17768 27.8848 2.27145 27.9786C2.36521 28.0723 2.49239 28.125 2.625 28.125H19.625C19.7576 28.125 19.8848 28.0723 19.9786 27.9786C20.0723 27.8848 20.125 27.7576 20.125 27.625V2.625C20.125 2.49239 20.0723 2.36521 19.9786 2.27145C19.8848 2.17768 19.7576 2.125 19.625 2.125H4.625Z" fill="white" stroke="white" stroke-width="0.25" stroke-linecap="round" stroke-linejoin="round"/>
</svg>
