<svg width="22" height="32" viewBox="0 0 22 32" fill="none" xmlns="http://www.w3.org/2000/svg">
<path d="M18.8571 0C19.6907 0 20.4901 0.337142 21.0795 0.937258C21.6689 1.53737 22 2.35131 22 3.2V28.8C22 29.6487 21.6689 30.4626 21.0795 31.0627C20.4901 31.6629 19.6907 32 18.8571 32H3.14286C2.30932 32 1.50992 31.6629 0.920521 31.0627C0.331121 30.4626 0 29.6487 0 28.8V3.2C0 2.35131 0.331121 1.53737 0.920521 0.937258C1.50992 0.337142 2.30932 0 3.14286 0L18.8571 0ZM19.8 24.6208H2.2V28.8C2.2 29.0546 2.29934 29.2988 2.47616 29.4788C2.65298 29.6589 2.8928 29.76 3.14286 29.76H18.8571C19.1072 29.76 19.347 29.6589 19.5238 29.4788C19.7007 29.2988 19.8 29.0546 19.8 28.8V24.6208ZM11 25.6C11.4168 25.6 11.8165 25.7686 12.1112 26.0686C12.4059 26.3687 12.5714 26.7757 12.5714 27.2C12.5714 27.6243 12.4059 28.0313 12.1112 28.3314C11.8165 28.6314 11.4168 28.8 11 28.8C10.5832 28.8 10.1835 28.6314 9.88883 28.3314C9.59413 28.0313 9.42857 27.6243 9.42857 27.2C9.42857 26.7757 9.59413 26.3687 9.88883 26.0686C10.1835 25.7686 10.5832 25.6 11 25.6ZM18.8571 2.24H3.14286C2.8928 2.24 2.65298 2.34114 2.47616 2.52118C2.29934 2.70121 2.2 2.94539 2.2 3.2V22.3808H19.8V3.2C19.8 2.94539 19.7007 2.70121 19.5238 2.52118C19.347 2.34114 19.1072 2.24 18.8571 2.24Z" fill="white"/>
</svg>
