<svg width="20" height="20" viewBox="0 0 20 20" fill="none" xmlns="http://www.w3.org/2000/svg">
<path d="M15.3125 0H4.6875C2.09867 0 0 2.09867 0 4.6875V15.3125C0 17.9013 2.09867 20 4.6875 20H15.3125C17.9013 20 20 17.9013 20 15.3125V4.6875C20 2.09867 17.9013 0 15.3125 0Z" fill="#242938"/>
<path d="M10 2.57812C5.90297 2.57812 2.57812 5.90297 2.57812 10C2.57812 14.097 5.90297 17.4219 10 17.4219C14.097 17.4219 17.4219 14.097 17.4219 10C17.4219 5.90297 14.097 2.57812 10 2.57812Z" fill="#1ED760"/>
<path d="M14.7465 9.25466C14.5908 9.25466 14.4951 9.21575 14.3604 9.13794C12.2296 7.86599 8.4199 7.56075 5.95396 8.24911C5.84615 8.27903 5.71154 8.32692 5.56787 8.32692C5.17287 8.32692 4.87061 8.01864 4.87061 7.62067C4.87061 7.21364 5.12193 6.98317 5.39131 6.90536C6.44475 6.59708 7.62389 6.45044 8.90771 6.45044C11.0924 6.45044 13.3818 6.90536 15.0547 7.88099C15.2881 8.01567 15.4408 8.20122 15.4408 8.55731C15.4408 8.96435 15.1115 9.25466 14.7465 9.25466ZM13.8187 11.535C13.6631 11.535 13.5583 11.4662 13.4506 11.4093C11.5802 10.3021 8.791 9.85614 6.31006 10.5295C6.16639 10.5684 6.08857 10.6073 5.95396 10.6073C5.63365 10.6073 5.37334 10.3469 5.37334 10.0268C5.37334 9.70653 5.52897 9.49403 5.83725 9.40724C6.6692 9.1738 7.51912 9.00021 8.76404 9.00021C10.7063 9.00021 12.5827 9.48208 14.0612 10.3619C14.3036 10.5056 14.3993 10.6911 14.3993 10.9515C14.3963 11.2747 14.1449 11.535 13.8187 11.535ZM13.0137 13.4983C12.888 13.4983 12.8102 13.4593 12.6935 13.3905C10.826 12.2653 8.65334 12.2174 6.50756 12.6573C6.39084 12.6872 6.23826 12.7351 6.15146 12.7351C5.86115 12.7351 5.67857 12.5047 5.67857 12.2622C5.67857 11.954 5.86115 11.8074 6.08561 11.7595C8.53662 11.2179 11.0415 11.2657 13.1783 12.5436C13.3608 12.6603 13.4686 12.765 13.4686 13.0374C13.4686 13.3097 13.2561 13.4983 13.0137 13.4983Z" fill="black"/>
</svg>
